<svg xmlns="http://www.w3.org/2000/svg" width="24.363" height="16.35" viewBox="0 0 24.363 16.35"><defs><style>.a{fill:#00a4ff;}</style></defs><g transform="translate(-9 -3.12)"><g transform="translate(9 3.12)"><path class="a" d="M22.952,3.12l-13.6.008A1.412,1.412,0,0,0,7.941,4.542V5.19a2.742,2.742,0,0,0-1.1-.212,4.275,4.275,0,0,0-1.1.145.751.751,0,0,0-.3.161L.259,9.825A.77.77,0,0,0,0,10.418l.045,7.475a.9.9,0,0,0,.867.741c.021,0,1.953.081,3.661.081a20.039,20.039,0,0,0,2.245-.086A3.631,3.631,0,0,0,9.029,17.8c.257-.187.485-.372.724-.557a1.619,1.619,0,0,0,2.724,1.56,1.652,1.652,0,0,0,.571.5,1.672,1.672,0,0,0,.733.173,1.617,1.617,0,0,0,1.446-.89L16.3,16.464a1.608,1.608,0,0,0,.1-1.239,1.553,1.553,0,0,0-.19-.374l6.728,0a1.418,1.418,0,0,0,1.416-1.413l.005-8.892A1.425,1.425,0,0,0,22.952,3.12Zm-10.018,12.7-1.072,2.119a.608.608,0,1,1-1.085-.548l.882-1.737s.289-.705.75-.713a.6.6,0,0,1,.259.064.6.6,0,0,1,.3.352A.584.584,0,0,1,12.934,15.823Zm-1.69-1.863-.97.889h.009c-.607.527-1.33,1.111-2.22,1.768a.341.341,0,0,0-.119.11,2.606,2.606,0,0,1-1.311.39c-.277.035-.858.03-2.059.03-1.044,0-2.344.015-3.054-.009l.012-6.4L6.3,6.555A2.943,2.943,0,0,1,6.837,6.5a.915.915,0,0,1,.641.17v5.286a.761.761,0,0,0,.372.654c.027.015.058.013.086.026v.057l.071-.036a.731.731,0,0,0,.6-.03,14.065,14.065,0,0,1,4.41-1.663.624.624,0,0,1,.107.005.122.122,0,0,0,.013.022C13.152,11.093,13.25,11.974,11.244,13.96ZM15.4,16l-1.072,2.119a.619.619,0,0,1-.818.268.61.61,0,0,1-.266-.817l1.074-2.119a.605.605,0,0,1,.542-.335.613.613,0,0,1,.276.068.6.6,0,0,1,.3.351A.586.586,0,0,1,15.4,16Zm8.022-2.562a.471.471,0,0,1-.471.471l-9.6,0a5.245,5.245,0,0,0,1.31-2.589,1.741,1.741,0,0,0-.25-1.165,1.441,1.441,0,0,0-1.393-.715A11.629,11.629,0,0,0,9,10.717V8.607l14.419,0Zm0-7.629L8.883,5.8V4.539a.471.471,0,0,1,.47-.471l13.6-.01a.489.489,0,0,1,.471.488Z" transform="translate(0 -3.12)"/><path class="a" d="M18.229,11.125l-.01-1.278-3.723,0,.012,1.28Z" transform="translate(4.119 -1.209)"/></g></g></svg>