<svg xmlns="http://www.w3.org/2000/svg" width="15.581" height="12.876" viewBox="0 0 15.581 12.876"><defs><style>.a{fill:#fff;fill-rule:evenodd;}</style></defs><path class="a" d="M46.777,8.383c-.344,1.284,1.052,2.719,2.651.249l-.4-.291a1.659,1.659,0,0,1,1.662-.774,3.943,3.943,0,0,0-1.236,1.524h0c-.908,1.735,1,3.045,2.245,1.118L51.02,9.7a3.3,3.3,0,0,1,3.3-1.537c-2.193,1.613-3.514,4.354-3.6,8.688a16.794,16.794,0,0,0-8.375,0c-.09-4.334-1.411-7.075-3.6-8.688a3.3,3.3,0,0,1,3.3,1.537l-.68.509c1.247,1.928,3.154.617,2.245-1.118l.013-.006a3.942,3.942,0,0,0-1.234-1.518,1.66,1.66,0,0,1,1.662.774l-.4.291c1.591,2.46,2.978,1.043,2.641-.239a.946.946,0,0,1-.848-1.007l.567-3.411V7.089a.5.5,0,1,0,.993,0V3.975l.567,3.411a.938.938,0,0,1-.8,1Zm-3.658,4.7-.09.278h-.293l.237.172-.091.278.236-.172.236.172-.091-.279.237-.172h-.292l-.09-.278Zm6.894,0-.09.278h-.292l.236.172-.091.278.236-.172.236.172-.089-.279.237-.172h-.293l-.09-.278Zm-3.482-1.342v3.089l-.1.258q.482,0,.967.025l-.112-.266V12.873q.234.576.469,1.157c.156.389.314.782.473,1.175q.411.071.823.169c-.024-.088-.046-.176-.069-.264V12.078l.1-.224s-.645-.175-.967-.24l.111.278V13.9c-.157-.4-.315-.807-.473-1.2s-.313-.794-.469-1.188q-.412-.023-.823-.021c.023.083.046.166.069.249Zm-1.714.63h0v2.218c.172-.028.344-.051.516-.073.057-.065.114-.129.172-.193V13.84l-.146-.168c-.181.135-.361.27-.541.41v-.745q.344-.263.688-.512v-.387l-.172-.153c-.172.025-.344.052-.516.083Zm-.817-.5q.026.115.053.23v3.044c-.018.086-.035.172-.052.258l.114-.023q.351-.072.7-.129.458-.067.916-.11c.172-.169.34-.338.511-.5V13.5c-.1-.08-.2-.16-.3-.239l.3-.28V12c-.172-.152-.34-.3-.511-.448q-.459.054-.916.134c-.235.047-.469.1-.7.156L44,11.866Z" transform="translate(-38.744 -3.975)"/></svg>