<svg id="calendar_1_" data-name="calendar (1)" xmlns="http://www.w3.org/2000/svg" width="85.02" height="78.753" viewBox="0 0 85.02 78.753">
  <path id="Path_50" data-name="Path 50" d="M92.983,29.5a8.636,8.636,0,0,0-8.5-8.75H71.738V16.375a4.251,4.251,0,1,0-8.5,0V20.75H37.744V16.375a4.251,4.251,0,1,0-8.5,0V20.75H16.5A8.636,8.636,0,0,0,8,29.5V82a8.636,8.636,0,0,0,8.5,8.75s65.368-.06,67.987,0a8.165,8.165,0,0,0,6.276-2.613,8.029,8.029,0,0,0,2.222-5.689C93.066,80.322,92.983,29.5,92.983,29.5ZM16.5,82V29.5H29.246v4.375a4.251,4.251,0,1,0,8.5,0V29.5H63.239v4.375a4.251,4.251,0,1,0,8.5,0V29.5H84.485c.122,0,.083,52.276,0,52.5Z" transform="translate(-8 -12)" fill="#ff6301"/>
</svg>
