<svg xmlns="http://www.w3.org/2000/svg" width="12.806" height="11.521" viewBox="0 0 12.806 11.521"><defs><style>.a{fill:#ff6301;}</style></defs><path class="a" d="M20.8,14.56a1.281,1.281,0,0,0-1.28-1.28H17.6v-.64a.64.64,0,1,0-1.28,0v.64H12.48v-.64a.64.64,0,1,0-1.28,0v.64H9.28A1.281,1.281,0,0,0,8,14.56v7.68a1.281,1.281,0,0,0,1.28,1.28s9.846-.009,10.241,0a1.248,1.248,0,0,0,.945-.382,1.156,1.156,0,0,0,.335-.832C20.813,21.995,20.8,14.56,20.8,14.56ZM9.28,22.241V14.56H11.2v.64a.64.64,0,0,0,1.28,0v-.64h3.84v.64a.64.64,0,0,0,1.28,0v-.64h1.92c.018,0,.012,7.648,0,7.68Z" transform="translate(-8 -12)"/></svg>