<svg xmlns="http://www.w3.org/2000/svg" width="14.489" height="14.489" viewBox="0 0 14.489 14.489"><defs><style>.a{fill:#fff;}</style></defs><ellipse class="a" cx="0.566" cy="0.566" rx="0.566" ry="0.566" transform="translate(10.357 5.377)"/><path class="a" d="M12.225,1.132h-.736V.566a.566.566,0,0,0-1.132,0v.566H7.782V.566a.566.566,0,0,0-1.132,0v.566H4.1V.566a.566.566,0,0,0-1.132,0v.566H2.264A2.266,2.266,0,0,0,0,3.4v8.829a2.266,2.266,0,0,0,2.264,2.264h4.33a.566.566,0,1,0,0-1.132H2.264a1.133,1.133,0,0,1-1.132-1.132V3.4A1.133,1.133,0,0,1,2.264,2.264h.707V2.83a.566.566,0,0,0,1.132,0V2.264H6.65V2.83a.566.566,0,0,0,1.132,0V2.264h2.575V2.83a.566.566,0,0,0,1.132,0V2.264h.736A1.133,1.133,0,0,1,13.357,3.4V6.622a.566.566,0,0,0,1.132,0V3.4A2.266,2.266,0,0,0,12.225,1.132Z"/><path class="a" d="M273.424,270a3.424,3.424,0,1,0,3.424,3.424A3.428,3.428,0,0,0,273.424,270Zm0,5.716a2.292,2.292,0,1,1,2.292-2.292A2.295,2.295,0,0,1,273.424,275.716Z" transform="translate(-262.359 -262.36)"/><path class="a" d="M372.387,331.16h-.255v-.594a.566.566,0,0,0-1.132,0v1.16a.566.566,0,0,0,.566.566h.821a.566.566,0,1,0,0-1.132Z" transform="translate(-360.501 -320.662)"/><ellipse class="a" cx="0.566" cy="0.566" rx="0.566" ry="0.566" transform="translate(7.895 5.377)"/><ellipse class="a" cx="0.566" cy="0.566" rx="0.566" ry="0.566" transform="translate(5.433 7.839)"/><ellipse class="a" cx="0.566" cy="0.566" rx="0.566" ry="0.566" transform="translate(2.971 5.377)"/><ellipse class="a" cx="0.566" cy="0.566" rx="0.566" ry="0.566" transform="translate(2.971 7.839)"/><ellipse class="a" cx="0.566" cy="0.566" rx="0.566" ry="0.566" transform="translate(2.971 10.301)"/><ellipse class="a" cx="0.566" cy="0.566" rx="0.566" ry="0.566" transform="translate(5.433 10.301)"/><ellipse class="a" cx="0.566" cy="0.566" rx="0.566" ry="0.566" transform="translate(5.433 5.377)"/></svg>