<svg xmlns="http://www.w3.org/2000/svg" width="12.101" height="10.886" viewBox="0 0 12.101 10.886"><defs><style>.a{opacity:0.72;}.b{fill:#ff6301;}</style></defs><g class="a" transform="translate(0 0)"><path class="b" d="M20.1,14.419a1.211,1.211,0,0,0-1.21-1.21H17.072v-.6a.6.6,0,1,0-1.21,0v.6H12.233v-.6a.6.6,0,1,0-1.21,0v.6H9.21A1.211,1.211,0,0,0,8,14.419v7.257a1.211,1.211,0,0,0,1.21,1.21s9.3-.008,9.676,0a1.179,1.179,0,0,0,.893-.361,1.093,1.093,0,0,0,.316-.786C20.107,21.444,20.1,14.419,20.1,14.419ZM9.21,21.676V14.419h1.814v.6a.6.6,0,0,0,1.21,0v-.6h3.629v.6a.6.6,0,0,0,1.21,0v-.6h1.814c.017,0,.012,7.226,0,7.257Z" transform="translate(-8 -12)"/></g></svg>