<svg xmlns="http://www.w3.org/2000/svg" width="75.683" height="75.683" viewBox="0 0 75.683 75.683">
  <g id="Group_2886" data-name="Group 2886" transform="translate(-1361.342 -269.909)">
    <g id="Group_2885" data-name="Group 2885" transform="translate(1361.342 269.909)">
      <g id="Group_2811" data-name="Group 2811">
        <circle id="Ellipse_139" data-name="Ellipse 139" cx="37.841" cy="37.841" r="37.841" transform="translate(0 0)" fill="#6ac259"/>
      </g>
      <g id="telephone" transform="translate(19.674 14.912)">
        <path id="Path_3644" data-name="Path 3644" d="M9.046,26.783A42.745,42.745,0,0,0,23.264,37.92a22.129,22.129,0,0,0,7.956,2.354c.192.008.376.017.568.017A6.589,6.589,0,0,0,36.9,38.1a.182.182,0,0,0,.033-.042,21.512,21.512,0,0,1,1.611-1.67c.392-.376.793-.768,1.177-1.169a4.031,4.031,0,0,0-.017-6l-5.018-5.018a4.061,4.061,0,0,0-2.939-1.353,4.2,4.2,0,0,0-2.972,1.344l-2.989,2.989c-.276-.159-.559-.3-.827-.434a10.323,10.323,0,0,1-.918-.5,31.632,31.632,0,0,1-7.556-6.879,18.216,18.216,0,0,1-2.555-4.074c.785-.71,1.519-1.453,2.229-2.179.25-.259.509-.518.768-.776a4.28,4.28,0,0,0,1.386-3.006A4.246,4.246,0,0,0,16.927,6.32L14.439,3.832c-.292-.292-.568-.576-.852-.868-.551-.568-1.127-1.152-1.695-1.678A4.162,4.162,0,0,0,8.954,0,4.285,4.285,0,0,0,5.982,1.294L2.859,4.417A6.416,6.416,0,0,0,.947,8.524,15.452,15.452,0,0,0,2.108,15.2,38.857,38.857,0,0,0,9.046,26.783ZM2.984,8.7A4.416,4.416,0,0,1,4.312,5.861L7.418,2.755a2.248,2.248,0,0,1,1.536-.71,2.133,2.133,0,0,1,1.5.726c.559.518,1.085,1.06,1.653,1.636.284.292.576.584.868.885l2.488,2.488a2.267,2.267,0,0,1,.785,1.561,2.267,2.267,0,0,1-.785,1.561c-.259.259-.518.526-.776.785-.776.785-1.5,1.528-2.3,2.237l-.042.042a1.632,1.632,0,0,0-.417,1.853c.008.025.017.042.025.067a19.649,19.649,0,0,0,2.93,4.767,33.386,33.386,0,0,0,8.048,7.33,11.951,11.951,0,0,0,1.1.6,10.325,10.325,0,0,1,.918.5c.033.017.058.033.092.05a1.745,1.745,0,0,0,.81.209,1.771,1.771,0,0,0,1.244-.568l3.122-3.122a2.209,2.209,0,0,1,1.528-.743,2.1,2.1,0,0,1,1.478.743l5.034,5.026a2.013,2.013,0,0,1-.025,3.148c-.351.376-.718.735-1.11,1.11a24.043,24.043,0,0,0-1.745,1.812A4.584,4.584,0,0,1,31.8,38.271c-.142,0-.292-.008-.434-.017a20.1,20.1,0,0,1-7.2-2.154A40.608,40.608,0,0,1,10.632,25.5a37.193,37.193,0,0,1-6.6-10.979A13.466,13.466,0,0,1,2.984,8.7Z" transform="translate(-0.912 0)" fill="#fff"/>
      </g>
    </g>
  </g>
</svg>
