<svg xmlns="http://www.w3.org/2000/svg" width="14.726" height="14.733" viewBox="0 0 14.726 14.733"><defs><style>.a{fill:#fff;}</style></defs><g transform="translate(0 0)"><g transform="translate(0)"><path class="a" d="M12.687,2.159a7.364,7.364,0,0,0-10.9,9.878,2.764,2.764,0,0,1-1.16,1.342.687.687,0,0,0,.2,1.3,3.5,3.5,0,0,0,.521.04h0a4.763,4.763,0,0,0,2.647-.858,7.367,7.367,0,0,0,8.7-11.7ZM12.1,11.984A6.535,6.535,0,0,1,4.173,13a.415.415,0,0,0-.466.028,3.966,3.966,0,0,1-2.311.848,4.192,4.192,0,0,0,1.262-1.743.419.419,0,0,0-.071-.444,6.532,6.532,0,1,1,9.51.3Z" transform="translate(-0.117 0)"/><path class="a" d="M131.869,160H125.7a.416.416,0,0,0,0,.833h6.17a.416.416,0,1,0,0-.833Z" transform="translate(-121.422 -155.064)"/><path class="a" d="M131.869,225.3H125.7a.416.416,0,0,0,0,.833h6.17a.416.416,0,1,0,0-.833Z" transform="translate(-121.422 -218.35)"/><path class="a" d="M131.869,290.6H125.7a.416.416,0,1,0,0,.833h6.17a.416.416,0,1,0,0-.833Z" transform="translate(-121.422 -281.636)"/></g></g></svg>