<svg xmlns="http://www.w3.org/2000/svg" width="7.206" height="7.215" viewBox="0 0 7.206 7.215"><defs><style>.a{fill:#51af54;}</style></defs><g transform="translate(0 0)"><path class="a" d="M16.865,5.88,17.142,8.1v.888a.225.225,0,0,0,.225.225h4.509a.225.225,0,0,0,.225-.225V8.1L22.38,5.88A1.578,1.578,0,0,0,21.651,2.9a1.529,1.529,0,0,0-.32.034,2.029,2.029,0,0,0-3.418,0,1.529,1.529,0,0,0-.32-.034,1.578,1.578,0,0,0-.728,2.976Zm4.787,2.886H17.593V8.315h4.058Zm.027-.9h-.9l.2-1.321a.227.227,0,0,0-.449-.065l-.2,1.387H18.916l-.2-1.384a.228.228,0,1,0-.451.063l.192,1.321h-.9l-.225-1.826a1.547,1.547,0,0,0,1.2-.293,2.029,2.029,0,0,0,2.169,0,1.547,1.547,0,0,0,1.2.293ZM17.593,3.354a1.159,1.159,0,0,1,.358.059.225.225,0,0,0,.271-.108,1.578,1.578,0,0,1,2.8,0,.225.225,0,0,0,.271.108,1.159,1.159,0,0,1,.358-.059,1.127,1.127,0,1,1,0,2.255,1.109,1.109,0,0,1-.579-.165.216.216,0,0,0-.322-.286,1.578,1.578,0,0,1-2.232,0,.224.224,0,0,0-.334.3,1.109,1.109,0,0,1-.591.153,1.127,1.127,0,1,1,0-2.255Z" transform="translate(-16.019 -2.002)"/></g></svg>