<svg xmlns="http://www.w3.org/2000/svg" width="15.176" height="15.177" viewBox="0 0 15.176 15.177"><defs><style>.a{fill:#ff6301;}.b{fill:#fafafa;}</style></defs><g transform="translate(-0.01 0)"><path class="a" d="M14.489,7.589l.666-1.737a.475.475,0,0,0-.144-.539l-1.444-1.17-.292-1.837a.474.474,0,0,0-.395-.394L11.043,1.62,9.874.175A.475.475,0,0,0,9.336.031L7.6.7,5.862.032a.473.473,0,0,0-.538.144L4.154,1.621l-1.837.292a.475.475,0,0,0-.394.394L1.631,4.144.186,5.314a.475.475,0,0,0-.144.538L.708,7.589.042,9.325a.473.473,0,0,0,.144.538l1.445,1.169.292,1.837a.474.474,0,0,0,.394.395l1.837.292L5.324,15a.472.472,0,0,0,.539.144L7.6,14.479l1.737.666A.475.475,0,0,0,9.874,15l1.169-1.444,1.837-.292a.475.475,0,0,0,.395-.395l.292-1.837,1.444-1.169a.473.473,0,0,0,.144-.538Z" transform="translate(0 0)"/><g transform="translate(4.753 3.794)"><path class="b" d="M161.445,130.88a1.423,1.423,0,1,1,1.423-1.423A1.424,1.424,0,0,1,161.445,130.88Zm0-1.9a.474.474,0,1,0,.474.474A.474.474,0,0,0,161.445,128.983Z" transform="translate(-160.022 -128.034)"/><path class="b" d="M257.445,290.88a1.423,1.423,0,1,1,1.423-1.423A1.424,1.424,0,0,1,257.445,290.88Zm0-1.9a.474.474,0,1,0,.474.474A.476.476,0,0,0,257.445,288.983Z" transform="translate(-253.177 -283.292)"/><path class="b" d="M160.51,135.606a.474.474,0,0,1-.385-.75l4.742-6.639a.474.474,0,0,1,.772.551l-4.742,6.639A.476.476,0,0,1,160.51,135.606Z" transform="translate(-160.036 -128.017)"/></g></g></svg>