<svg xmlns="http://www.w3.org/2000/svg" width="20.061" height="18.591" viewBox="0 0 20.061 18.591"><defs><style>.a{fill:#fff;}</style></defs><g transform="translate(0 -17.25)"><g transform="translate(0 17.25)"><path class="a" d="M19.485,228.235a.572.572,0,0,0-.575.575v5.228a2.579,2.579,0,0,1-2.576,2.576H3.725a2.579,2.579,0,0,1-2.576-2.576v-5.313a.575.575,0,0,0-1.149,0v5.313a3.729,3.729,0,0,0,3.725,3.725h12.61a3.729,3.729,0,0,0,3.725-3.725V228.81A.575.575,0,0,0,19.485,228.235Z" transform="translate(0 -219.172)"/><path class="a" d="M140.051,31.278a.578.578,0,0,0,.4.17.561.561,0,0,0,.4-.17l3.653-3.653a.575.575,0,0,0-.813-.813l-2.669,2.674V17.825a.575.575,0,0,0-1.149,0V29.485l-2.674-2.674a.575.575,0,0,0-.813.813Z" transform="translate(-130.426 -17.25)"/></g></g></svg>