<svg xmlns="http://www.w3.org/2000/svg" width="20.937" height="16.173" viewBox="0 0 20.937 16.173"><defs><style>.a{fill:#ff6301;}</style></defs><g transform="translate(1.132 5.02)"><rect class="a" width="2.404" height="1.227"/></g><g transform="translate(1.132 9.927)"><rect class="a" width="2.404" height="1.227"/></g><g transform="translate(0 7.473)"><rect class="a" width="3.537" height="1.227"/></g><g transform="translate(4.764 0)"><path class="a" d="M124.576,58.245a8.087,8.087,0,1,0,8.087,8.087A8.1,8.1,0,0,0,124.576,58.245Zm0,14.947a6.86,6.86,0,1,1,6.86-6.86A6.868,6.868,0,0,1,124.576,73.192Z" transform="translate(-116.489 -58.245)"/></g><g transform="translate(12.02 4.429)"><path class="a" d="M295.157,170.519v-3.962H293.93v4.611l3.161,2.154.691-1.014Z" transform="translate(-293.93 -166.557)"/></g></svg>