<svg xmlns="http://www.w3.org/2000/svg" width="16.735" height="16.735" viewBox="0 0 16.735 16.735"><defs><style>.a{fill:#fbbb00;}.b{fill:#518ef8;}.c{fill:#28b446;}.d{fill:#f14336;}</style></defs><g transform="translate(0)"><path class="a" d="M3.709,143.862l-.583,2.175L1,146.082a8.382,8.382,0,0,1-.062-7.814h0l1.9.348.83,1.884a4.994,4.994,0,0,0,.047,3.362Z" transform="translate(0 -133.749)"/><path class="b" d="M269.665,208.176a8.365,8.365,0,0,1-2.983,8.089h0l-2.388-.122-.338-2.109a4.987,4.987,0,0,0,2.146-2.547h-4.474v-3.31h8.038Z" transform="translate(-253.076 -201.372)"/><path class="c" d="M43.118,314.188h0a8.37,8.37,0,0,1-12.609-2.56l2.712-2.22a4.977,4.977,0,0,0,7.171,2.548Z" transform="translate(-29.512 -299.296)"/><path class="d" d="M41.4,1.926,38.686,4.146A4.976,4.976,0,0,0,31.35,6.751L28.624,4.519h0A8.369,8.369,0,0,1,41.4,1.926Z" transform="translate(-27.688)"/></g></svg>