<svg xmlns="http://www.w3.org/2000/svg" width="961.608" height="1262" viewBox="0 0 961.608 1262">
  <g id="Group_2743" data-name="Group 2743" transform="translate(-371 -11576)">
    <path id="Intersection_2" data-name="Intersection 2" d="M5.047,1400.828v-1262H811.966c1.032,1.02,2.083,2.067,3.112,3.1C1133,461.261,890.919,1048.458,635.938,1367.8q-14.123,17.688-28.748,33.028Z" transform="translate(365.953 11437.173)" fill="#dd5906"/>
    <path id="Intersection_3" data-name="Intersection 3" d="M37.113,1442.038q-1.045-.588-2.066-1.167V180.037H841.966c1.032,1.02,2.083,2.066,3.111,3.1a508.1,508.1,0,0,1,34.789,38.694c215.067,329.977-8.962,851.692-243.929,1145.968-23.593,29.548-48.269,54.068-73.617,74.238Z" transform="translate(335.953 11395.963)" fill="#fff" opacity="0.1"/>
  </g>
</svg>
