<svg xmlns="http://www.w3.org/2000/svg" xmlns:xlink="http://www.w3.org/1999/xlink" width="16.684" height="16.684" viewBox="0 0 16.684 16.684"><defs><style>.a{fill:url(#a);}.b{fill:url(#b);}.c{fill:url(#c);}</style><linearGradient id="a" x1="0.084" y1="0.916" x2="0.916" y2="0.084" gradientUnits="objectBoundingBox"><stop offset="0" stop-color="#ffd600"/><stop offset="0.5" stop-color="#ff0100"/><stop offset="1" stop-color="#d800b9"/></linearGradient><linearGradient id="b" x1="0.146" y1="0.854" x2="0.854" y2="0.146" gradientUnits="objectBoundingBox"><stop offset="0" stop-color="#ff6400"/><stop offset="0.5" stop-color="#ff0100"/><stop offset="1" stop-color="#fd0056"/></linearGradient><linearGradient id="c" x1="0.146" y1="0.854" x2="0.854" y2="0.146" gradientUnits="objectBoundingBox"><stop offset="0" stop-color="#f30072"/><stop offset="1" stop-color="#e50097"/></linearGradient></defs><g transform="translate(0)"><path class="a" d="M16.634,4.9a6.124,6.124,0,0,0-.388-2.025A4.088,4.088,0,0,0,15.284,1.4,4.09,4.09,0,0,0,13.806.438,6.123,6.123,0,0,0,11.781.05C10.892.01,10.608,0,8.342,0S5.792.01,4.9.05A6.125,6.125,0,0,0,2.878.438,4.088,4.088,0,0,0,1.4,1.4,4.089,4.089,0,0,0,.438,2.878,6.124,6.124,0,0,0,.05,4.9C.01,5.792,0,6.076,0,8.342s.01,2.55.05,3.439a6.123,6.123,0,0,0,.388,2.025A4.088,4.088,0,0,0,1.4,15.284a4.087,4.087,0,0,0,1.478.962,6.121,6.121,0,0,0,2.025.388c.89.041,1.174.05,3.439.05s2.55-.01,3.439-.05a6.122,6.122,0,0,0,2.025-.388,4.265,4.265,0,0,0,2.44-2.44,6.123,6.123,0,0,0,.388-2.025c.04-.89.05-1.174.05-3.439S16.674,5.792,16.634,4.9Zm-1.5,6.81a4.615,4.615,0,0,1-.287,1.549,2.762,2.762,0,0,1-1.583,1.583,4.616,4.616,0,0,1-1.549.287c-.879.04-1.143.049-3.371.049s-2.491-.008-3.371-.049a4.617,4.617,0,0,1-1.549-.287,2.585,2.585,0,0,1-.959-.624,2.584,2.584,0,0,1-.624-.959,4.616,4.616,0,0,1-.287-1.549c-.04-.88-.049-1.143-.049-3.371s.009-2.491.049-3.371a4.619,4.619,0,0,1,.287-1.549,2.586,2.586,0,0,1,.624-.959,2.583,2.583,0,0,1,.959-.624,4.615,4.615,0,0,1,1.549-.287c.88-.04,1.143-.049,3.371-.049h0c2.227,0,2.491.009,3.371.049a4.616,4.616,0,0,1,1.549.287,2.587,2.587,0,0,1,.959.624,2.583,2.583,0,0,1,.624.959,4.611,4.611,0,0,1,.287,1.549c.04.88.049,1.143.049,3.371S15.173,10.833,15.132,11.713Zm0,0" transform="translate(0 0)"/><path class="b" d="M128.823,124.539a4.284,4.284,0,1,0,4.284,4.284A4.284,4.284,0,0,0,128.823,124.539Zm0,7.064a2.781,2.781,0,1,1,2.781-2.781A2.781,2.781,0,0,1,128.823,131.6Zm0,0" transform="translate(-120.481 -120.481)"/><path class="c" d="M363.932,89.626a1,1,0,1,1-1-1A1,1,0,0,1,363.932,89.626Zm0,0" transform="translate(-350.136 -85.737)"/></g></svg>