<svg xmlns="http://www.w3.org/2000/svg" width="13.922" height="12.704" viewBox="0 0 13.922 12.704"><defs><style>.a{fill:#fc4412;}</style></defs><g transform="translate(0 -22.397)"><g transform="translate(0 27.29)"><g transform="translate(0 0)"><path class="a" d="M149.367,203.484l1.49-1.05a.408.408,0,0,1,.643.333v.642h7.152a.408.408,0,1,1,0,.816H151.5v.642a.408.408,0,0,1-.643.333l-1.49-1.05A.409.409,0,0,1,149.367,203.484Z" transform="translate(-149.195 -202.358)"/></g></g><g transform="translate(2.013 22.397)"><g transform="translate(0 0)"><path class="a" d="M.2,31.368a.408.408,0,0,1,.557.149,5.536,5.536,0,1,0,0-5.536.408.408,0,0,1-.706-.408,6.352,6.352,0,1,1,0,6.353A.408.408,0,0,1,.2,31.368Z" transform="translate(0 -22.397)"/></g></g></g></svg>