<svg xmlns="http://www.w3.org/2000/svg" width="33.633" height="35.611" viewBox="0 0 33.633 35.611"><defs><style>.a{fill:#e49871;}</style></defs><path class="a" d="M30.708,3a6.9,6.9,0,0,0-6.825,5.935H4v3.957l12.86,12.86V36.633h-8.9v1.978H27.741V36.633h-8.9V25.752l9.383-9.383A6.917,6.917,0,1,0,30.708,3ZM17.849,23.943l-7.094-7.094H24.943Zm9.072-9.072H8.776l-2.8-2.8V10.914H29.719v1.159Zm3.787,0a4.928,4.928,0,0,1-.9-.091L31.7,12.892V8.935H25.863a4.946,4.946,0,1,1,4.846,5.935Z" transform="translate(-4 -3)"/></svg>