<svg xmlns="http://www.w3.org/2000/svg" width="30.477" height="37.012" viewBox="0 0 30.477 37.012"><defs><style>.a{fill:#e49871;}</style></defs><g transform="translate(0 0)"><g transform="translate(0 0)"><g transform="translate(0.201 8.853)"><path class="a" d="M47.547,51.686a.816.816,0,0,1-.547-.21l-18.774-16.9a2.491,2.491,0,0,0-3.333,3.7A.818.818,0,0,1,23.8,39.5a4.127,4.127,0,1,1,5.522-6.135l18.774,16.9a.818.818,0,0,1-.548,1.426Z" transform="translate(-22.432 -32.304)"/></g><g transform="translate(22.58 29.114)"><path class="a" d="M67.408,77.347A3.949,3.949,0,1,1,71.356,73.4,3.953,3.953,0,0,1,67.408,77.347Zm0-6.261A2.312,2.312,0,1,0,69.72,73.4,2.315,2.315,0,0,0,67.408,71.085Z" transform="translate(-63.459 -69.449)"/></g><g transform="translate(0 19.723)"><path class="a" d="M30.707,69.52a8.645,8.645,0,1,1,8.645-8.644A8.654,8.654,0,0,1,30.707,69.52Zm0-15.654a7.008,7.008,0,1,0,7.009,7.009A7.016,7.016,0,0,0,30.707,53.867Z" transform="translate(-22.063 -52.231)"/></g><g transform="translate(10.292)"><path class="a" d="M46.288,26.788a5.357,5.357,0,1,1,5.357-5.357A5.363,5.363,0,0,1,46.288,26.788Zm0-9.079A3.721,3.721,0,1,0,50.01,21.43,3.725,3.725,0,0,0,46.288,17.709Z" transform="translate(-40.931 -16.073)"/></g><g transform="translate(10.586 12.104)"><path class="a" d="M55.562,47.639a4.629,4.629,0,0,1-4.533-3.6L51,43.813a.9.9,0,0,0-.02-.128A4.769,4.769,0,0,0,46.464,39.9a4.569,4.569,0,0,0-3.542,1.676.818.818,0,1,1-1.264-1.039,6.2,6.2,0,0,1,4.807-2.273,6.434,6.434,0,0,1,6.117,5.083,2.208,2.208,0,0,1,.049.313l.006.056A3,3,0,0,0,55.563,46a.818.818,0,1,1,0,1.635Z" transform="translate(-41.471 -38.263)"/></g></g></g></svg>