<svg xmlns="http://www.w3.org/2000/svg" width="35.623" height="35.623" viewBox="0 0 35.623 35.623"><defs><style>.a{fill:#e49871;}</style></defs><g transform="translate(0 0)"><path class="a" d="M31.314,53.707h18.07a2.831,2.831,0,0,0,2.828-2.83v-4.1h-20.9Zm19.01-2.83a.942.942,0,0,1-.941.943H47.128V48.668h3.2v2.209ZM33.2,48.668h12.04V51.82H33.2Z" transform="translate(-21.642 -28.578)"/><rect class="a" width="1.887" height="5.837" transform="translate(7.255 18.747)"/><path class="a" d="M28.213,30.39a4.03,4.03,0,0,0-1.369,3.672,3.708,3.708,0,0,0,2.584,2.7l.645-1.773a1.954,1.954,0,0,1-1.378-1.291,2.181,2.181,0,0,1,.794-1.913c.987-.906,1.686-1.651,1.686-2.986a3.457,3.457,0,0,0-3.184-3.525v1.887a1.6,1.6,0,0,1,1.3,1.638C29.288,29.238,29.2,29.489,28.213,30.39Z" transform="translate(-19.625 -19.004)"/><path class="a" d="M36.125,28.8c0,.442-.093.694-1.075,1.594a4.036,4.036,0,0,0-1.369,3.673,3.71,3.71,0,0,0,2.585,2.7l.645-1.773a1.955,1.955,0,0,1-1.378-1.29,2.185,2.185,0,0,1,.792-1.914c.987-.906,1.687-1.651,1.687-2.986a3.458,3.458,0,0,0-3.185-3.525v1.887A1.6,1.6,0,0,1,36.125,28.8Z" transform="translate(-22.668 -19.004)"/><path class="a" d="M31.7,49.6A17.812,17.812,0,1,0,13.884,31.79,17.832,17.832,0,0,0,31.7,49.6Zm0-33.736A15.924,15.924,0,1,1,15.771,31.79,15.943,15.943,0,0,1,31.7,15.865Z" transform="translate(-13.884 -13.978)"/></g></svg>