<svg xmlns="http://www.w3.org/2000/svg" width="18.601" height="18.601" viewBox="0 0 18.601 18.601"><defs><style>.a{fill:#02050a;}</style></defs><g transform="translate(0 0)"><g transform="translate(0)"><path class="a" d="M14.354,5.053a9.3,9.3,0,1,0,9.3,9.3A9.311,9.311,0,0,0,14.354,5.053Zm0,17.326a8.026,8.026,0,1,1,8.026-8.026A8.035,8.035,0,0,1,14.354,22.379Z" transform="translate(-5.053 -5.053)"/><path class="a" d="M39.781,30.429A2.886,2.886,0,1,0,36.9,27.543,2.889,2.889,0,0,0,39.781,30.429Zm0-4.5a1.611,1.611,0,1,1-1.611,1.612A1.613,1.613,0,0,1,39.781,25.931Z" transform="translate(-30.306 -20.6)"/><path class="a" d="M35.038,54.993a3.6,3.6,0,0,0-3.362-2.445.635.635,0,0,0-.421.124,2.856,2.856,0,0,1-3.454,0,.64.64,0,0,0-.42-.124,3.6,3.6,0,0,0-3.37,2.472.638.638,0,1,0,1.191.455,2.3,2.3,0,0,1,2.046-1.634,4.122,4.122,0,0,0,4.561,0,2.3,2.3,0,0,1,2.04,1.614.638.638,0,0,0,1.189-.461Z" transform="translate(-20.055 -42.719)"/></g></g></svg>