<svg xmlns="http://www.w3.org/2000/svg" width="36.342" height="29.01" viewBox="0 0 36.342 29.01"><defs><style>.a{fill:#e49871;}</style></defs><g transform="translate(0 -51.645)"><path class="a" d="M36.342,57.643a1.692,1.692,0,0,0-1.2-1.626l-.017-.005L20.35,51.973a7.411,7.411,0,0,0-4.359,0L1.218,56.012l-.017.005A1.692,1.692,0,0,0,0,57.643a.554.554,0,0,1,0,.3v.568a1.705,1.705,0,0,0,1.7,1.7h7.95a1.7,1.7,0,0,0,1.136-.435,1.7,1.7,0,0,0,1.136.435H17.6V71H11.925a.568.568,0,0,0,0,1.136h4.543v.568A1.706,1.706,0,0,0,17.6,74.311v2.994a2.844,2.844,0,0,0-2.271,2.782.568.568,0,1,0,1.136,0A1.706,1.706,0,0,1,17.6,78.481v1.606a.568.568,0,1,0,1.136,0V78.481a1.706,1.706,0,0,1,1.136,1.606.568.568,0,1,0,1.136,0,2.844,2.844,0,0,0-2.271-2.782V74.311a1.706,1.706,0,0,0,1.136-1.606v-.568h4.543a.568.568,0,0,0,0-1.136H18.739V60.213h5.678a1.7,1.7,0,0,0,1.136-.435,1.7,1.7,0,0,0,1.136.435h7.95a1.705,1.705,0,0,0,1.7-1.7v-.568a.554.554,0,0,1,0-.3Zm-17.6,15.063a.568.568,0,1,1-1.136,0v-.568h1.136ZM10.625,56.238H4.7l10.18-2.783C13.223,54.594,11.169,55.9,10.625,56.238Zm6.588-3.08a1.526,1.526,0,0,1,1.918,0l.037.027,4.526,3.05H12.738C14.173,55.312,16.179,53.985,17.213,53.158Zm-7.56,5.919H1.7a.569.569,0,0,1-.568-.568v-.568a.554.554,0,0,1,0-.3.565.565,0,0,1,.068-.269h9.017v1.136A.569.569,0,0,1,9.653,59.077Zm14.764,0H11.925a.569.569,0,0,1-.568-.568V57.374H24.985v1.136A.569.569,0,0,1,24.417,59.077Zm10.789-.568a.569.569,0,0,1-.568.568h-7.95a.569.569,0,0,1-.568-.568V57.374h.568a.568.568,0,1,0,0-1.136h-.962l-4.04-2.723,9.958,2.723H28.96a.568.568,0,1,0,0,1.136h6.178a.564.564,0,0,1,.068.269.554.554,0,0,1,0,.3Z" transform="translate(0)"/><path class="a" d="M48.518,285.392v-2.65a.711.711,0,0,0-.71-.71H42.271v-3.975a1.705,1.705,0,0,0-1.7-1.7.568.568,0,1,0,0,1.136.568.568,0,0,1,.568.568v7.335l-.56,3.361a.568.568,0,0,0,.467.653.567.567,0,0,0,.653-.467l.489-2.933h5.284l.489,2.933a.568.568,0,1,0,1.12-.187Zm-1.136-.521H42.271v-1.7h5.111Z" transform="translate(-37.161 -208.759)"/><path class="a" d="M352.516,276.354a1.705,1.705,0,0,0-1.7,1.7v3.975h-5.536a.711.711,0,0,0-.71.71v2.65l-.56,3.361a.568.568,0,0,0,.467.653.574.574,0,0,0,.094.008.568.568,0,0,0,.559-.475l.489-2.933H350.9l.489,2.933a.568.568,0,1,0,1.12-.187l-.56-3.361v-7.335a.568.568,0,0,1,.568-.568.568.568,0,1,0,0-1.136Zm-6.814,6.814h5.111v1.7H345.7Z" transform="translate(-319.582 -208.759)"/></g></svg>