<svg xmlns="http://www.w3.org/2000/svg" width="38.693" height="29.02" viewBox="0 0 38.693 29.02"><defs><style>.a{fill:#e49871;}</style></defs><g transform="translate(-2 -17)"><path class="a" d="M40.048,28.608H35.534V26.825l1.043-2.087h1.536v-1.29H36.785a5.81,5.81,0,0,0-5.766-5.159v-.645a.645.645,0,0,0-1.29,0v.645a5.81,5.81,0,0,0-5.766,5.159H22.636v1.29h1.536l1.043,2.087v1.782H17.477V26.825l1.043-2.087h1.536v-1.29H18.729a5.81,5.81,0,0,0-5.766-5.159v-.645a.645.645,0,0,0-1.29,0v.645a5.81,5.81,0,0,0-5.766,5.159H4.58v1.29H6.116l1.043,2.087v1.782H2.645A.645.645,0,0,0,2,29.253V43.44a.645.645,0,0,0,.645.645,2.652,2.652,0,0,1,1.926.82,3.943,3.943,0,0,0,5.5,0,2.672,2.672,0,0,1,3.851,0,3.944,3.944,0,0,0,5.5,0,2.675,2.675,0,0,1,3.853,0,3.946,3.946,0,0,0,5.5,0,2.675,2.675,0,0,1,3.853,0,3.951,3.951,0,0,0,5.5,0,2.656,2.656,0,0,1,1.928-.82.645.645,0,0,0,.645-.645V29.253A.645.645,0,0,0,40.048,28.608ZM25.614,24.739h9.521l-.645,1.29H26.259ZM29.73,19.58h1.29a4.521,4.521,0,0,1,4.468,3.869H25.261A4.521,4.521,0,0,1,29.73,19.58Zm-3.224,7.739h7.739v1.29H26.505ZM7.558,24.739h9.521l-.645,1.29H8.2Zm4.116-5.159h1.29a4.521,4.521,0,0,1,4.468,3.869H7.2A4.521,4.521,0,0,1,11.673,19.58ZM8.449,27.318h7.739v1.29H8.449ZM39.4,42.843A4.094,4.094,0,0,0,37.3,43.91a3.362,3.362,0,0,1-1.119.7V38.926h-1.29v5.763a2.89,2.89,0,0,1-1.447-.778,4.326,4.326,0,0,0-1.777-1V36.346h-1.29v6.466a4,4,0,0,0-2.432,1.1,2.674,2.674,0,0,1-3.853,0,4.127,4.127,0,0,0-2.1-1.061l.005-3.277H20.7L20.7,42.849a4.114,4.114,0,0,0-2.1,1.061,3.373,3.373,0,0,1-1.115.7V35.057h-1.29v9.633a2.89,2.89,0,0,1-1.447-.778,4.313,4.313,0,0,0-1.777-1V36.991h-1.29v5.821a4,4,0,0,0-2.429,1.1,2.672,2.672,0,0,1-3.851,0,4.09,4.09,0,0,0-2.1-1.066V29.9H39.4Z"/><path class="a" d="M6,44.8H7.29V40.29H9.224V39H6Z" transform="translate(-1.42 -7.813)"/><path class="a" d="M52,40.29h2.58v2.58h1.29V39H52Z" transform="translate(-17.756 -7.813)"/></g></svg>