<svg xmlns="http://www.w3.org/2000/svg" width="22" height="22" viewBox="0 0 22 22">
  <g id="Group_3352" data-name="Group 3352" transform="translate(-575 -264)">
    <g id="Group_3350" data-name="Group 3350">
      <circle id="Ellipse_13" data-name="Ellipse 13" cx="11" cy="11" r="11" transform="translate(575 264)" fill="#ff6301"/>
    </g>
    <g id="pencil" transform="matrix(0.719, 0.695, -0.695, 0.719, 588.701, 269.701)">
      <g id="Group_6" data-name="Group 6" transform="translate(0 0)">
        <path id="Path_22" data-name="Path 22" d="M3.781,7.2v.005c0,.01,0,.023,0,.033a.019.019,0,0,1,0,.01.226.226,0,0,1-.013.038s0,.005-.005.01a.226.226,0,0,1-.015.026l-.008.01s0,.005-.005.008L2.075,9.512a.237.237,0,0,1-.184.092.229.229,0,0,1-.184-.092L.051,7.343s0-.005-.005-.008l-.008-.01L.023,7.3s0-.005-.005-.01S.01,7.263.005,7.25a.019.019,0,0,0,0-.01.145.145,0,0,1,0-.033V.233a.233.233,0,0,1,.466,0V6.968H1.655V.246a.233.233,0,1,1,.466,0V6.968H3.31V.246a.233.233,0,0,1,.466,0V7.2ZM.71,7.435,1.9,8.987,3.082,7.432H.71Z" transform="translate(0 2.936)" fill="#fff"/>
        <path id="Path_23" data-name="Path 23" d="M.835,0h2.1a.838.838,0,0,1,.838.838V2.116a.234.234,0,0,1-.233.233H.233A.234.234,0,0,1,0,2.116V.835A.835.835,0,0,1,.835,0ZM.464,1.883H3.307V.835A.372.372,0,0,0,2.936.464H.835A.372.372,0,0,0,.464.835Z" transform="translate(0.01 0)" fill="#fff"/>
      </g>
    </g>
  </g>
</svg>
