<?xml version="1.0"?>
<svg xmlns="http://www.w3.org/2000/svg" xmlns:xlink="http://www.w3.org/1999/xlink" version="1.1" id="Capa_1" x="0px" y="0px" viewBox="0 0 38 38" style="enable-background:new 0 0 38 38;" xml:space="preserve" width="512px" height="512px"><g><g>
	<path d="M0.293,36.293l36-36l1.414,1.414l-36,36L0.293,36.293z" data-original="#000000" class="active-path" data-old_color="#000000" fill="#FFFFFF"/>
	<path d="M6,12c3.309,0,6-2.691,6-6S9.309,0,6,0S0,2.691,0,6S2.691,12,6,12z M6,2c2.206,0,4,1.794,4,4s-1.794,4-4,4S2,8.206,2,6   S3.794,2,6,2z" data-original="#000000" class="active-path" data-old_color="#000000" fill="#FFFFFF"/>
	<path d="M32,26c-3.309,0-6,2.691-6,6s2.691,6,6,6s6-2.691,6-6S35.309,26,32,26z M32,36c-2.206,0-4-1.794-4-4s1.794-4,4-4   s4,1.794,4,4S34.206,36,32,36z" data-original="#000000" class="active-path" data-old_color="#000000" fill="#FFFFFF"/>
</g></g> </svg>
