<svg xmlns="http://www.w3.org/2000/svg" width="9.736" height="12.139" viewBox="0 0 9.736 12.139"><defs><style>.a{opacity:0.708;}.b{fill:#ff6301;}</style></defs><g class="a" transform="translate(0 0)"><g transform="translate(0)"><path class="b" d="M52.066,0A4.872,4.872,0,0,0,47.2,4.866a4.789,4.789,0,0,0,.087.914c0,.018.013.071.033.163a4.792,4.792,0,0,0,.326.959,13.64,13.64,0,0,0,4.207,5.161.345.345,0,0,0,.433,0A13.666,13.666,0,0,0,56.491,6.9a4.738,4.738,0,0,0,.326-.959c.02-.092.031-.145.033-.163a5,5,0,0,0,.087-.914A4.88,4.88,0,0,0,52.066,0Zm4.1,5.66c0,.005,0,.01,0,.015s-.01.051-.023.109v.005a4.04,4.04,0,0,1-.282.83s0,.008-.005.01a12.729,12.729,0,0,1-3.789,4.723,12.729,12.729,0,0,1-3.789-4.723s0-.008-.005-.01a4.309,4.309,0,0,1-.282-.83V5.784c-.015-.059-.02-.1-.023-.109s0-.01,0-.018a4.178,4.178,0,1,1,8.2,0Z" transform="translate(-47.2 0)"/><path class="b" d="M120.089,71.9a3.089,3.089,0,1,0,3.089,3.089A3.094,3.094,0,0,0,120.089,71.9Zm0,5.492a2.4,2.4,0,1,1,2.4-2.4A2.405,2.405,0,0,1,120.089,77.392Z" transform="translate(-115.224 -70.07)"/></g></g></svg>