<svg xmlns="http://www.w3.org/2000/svg" width="13.735" height="17.124" viewBox="0 0 13.735 17.124"><defs><style>.a{fill:#ff6300;}</style></defs><g transform="translate(0)"><path class="a" d="M54.064,0A6.873,6.873,0,0,0,47.2,6.864a6.757,6.757,0,0,0,.122,1.289c0,.025.018.1.047.23a6.76,6.76,0,0,0,.46,1.353,19.241,19.241,0,0,0,5.934,7.28.486.486,0,0,0,.61,0,19.278,19.278,0,0,0,5.934-7.28,6.685,6.685,0,0,0,.459-1.353c.029-.129.043-.2.047-.23a7.059,7.059,0,0,0,.122-1.289A6.884,6.884,0,0,0,54.064,0Zm5.787,7.984c0,.007,0,.014,0,.022s-.014.072-.032.154v.007a5.7,5.7,0,0,1-.4,1.17s0,.011-.007.014a17.957,17.957,0,0,1-5.345,6.663,17.957,17.957,0,0,1-5.345-6.663s0-.011-.007-.014a6.078,6.078,0,0,1-.4-1.17V8.16c-.022-.083-.029-.136-.032-.154s0-.014,0-.025a5.894,5.894,0,1,1,11.574,0Z" transform="translate(-47.2 0)"/><path class="a" d="M121.358,71.9a4.358,4.358,0,1,0,4.358,4.358A4.365,4.365,0,0,0,121.358,71.9Zm0,7.747a3.389,3.389,0,1,1,3.389-3.389A3.393,3.393,0,0,1,121.358,79.647Z" transform="translate(-114.494 -69.319)"/></g></svg>