<svg xmlns="http://www.w3.org/2000/svg" width="10.687" height="11.147" viewBox="0 0 10.687 11.147"><defs><style>.a{fill:#ea5607;}</style></defs><g transform="translate(-9.461)"><g transform="translate(9.461)"><path class="a" d="M20.072,4.913a.415.415,0,1,0-.82.131v.007A4.571,4.571,0,1,1,18.119,2.73l-1.839.613a.415.415,0,0,0-.263.525h0a.415.415,0,0,0,.525.263h0l2.491-.83a.415.415,0,0,0,.284-.394V.415a.415.415,0,1,0-.83,0V1.932a5.343,5.343,0,1,0,1.586,2.981Z" transform="translate(-9.461 0)"/></g></g></svg>