<svg xmlns="http://www.w3.org/2000/svg" width="13.465" height="6.263" viewBox="0 0 13.465 6.263"><defs><style>.a{opacity:0.911;}.b{fill:#ff6301;}</style></defs><g class="a" transform="translate(0 0)"><g transform="translate(0 0)"><path class="b" d="M55.435,3.77H66.189l-1.4,1.4a.641.641,0,0,0,.45,1.093.616.616,0,0,0,.449-.189l2.493-2.493a.646.646,0,0,0,.189-.449.627.627,0,0,0-.189-.449L65.688.188a.639.639,0,0,0-.9.9l1.4,1.4H55.435C54.674,2.581,54.786,3.77,55.435,3.77Z" transform="translate(-54.906 0)"/></g></g></svg>