<svg xmlns="http://www.w3.org/2000/svg" width="14.067" height="6.543" viewBox="0 0 14.067 6.543"><defs><style>.a{opacity:0.911;}.b{fill:#ff6301;}</style></defs><g class="a" transform="translate(0 0)"><g transform="translate(0 0)"><path class="b" d="M55.458,3.938H66.694L65.231,5.4a.67.67,0,0,0,.47,1.142.643.643,0,0,0,.47-.2l2.605-2.605a.675.675,0,0,0,.2-.47.655.655,0,0,0-.2-.47L66.17.2a.668.668,0,1,0-.944.944L66.689,2.6H55.458C54.664,2.7,54.781,3.938,55.458,3.938Z" transform="translate(-54.906 0)"/></g></g></svg>