<svg xmlns="http://www.w3.org/2000/svg" width="15.639" height="16.181" viewBox="0 0 15.639 16.181"><defs><style>.a{fill:#ff6300;}</style></defs><g transform="translate(-3.404)"><path class="a" d="M18.566.947H15.441V.477a.477.477,0,1,0-.954,0v.47H11.7V.477a.477.477,0,0,0-.954,0v.47H8.079V.477a.477.477,0,0,0-.954,0v.47H3.881a.477.477,0,0,0-.477.477V12.2a.477.477,0,0,0,.477.477H6.808a4.534,4.534,0,0,0,8.83,0h2.927a.477.477,0,0,0,.477-.477V1.424a.477.477,0,0,0-.477-.477ZM7.125,1.9v.431a.477.477,0,0,0,.954,0V1.9h2.668v.431a.477.477,0,0,0,.954,0V1.9h2.787v.431a.477.477,0,1,0,.954,0V1.9H18.09v1.95H4.358V1.9Zm4.1,13.325a3.581,3.581,0,1,1,3.581-3.581A3.586,3.586,0,0,1,11.224,15.227Zm4.533-3.5c0-.027,0-.053,0-.079a4.535,4.535,0,0,0-9.071,0c0,.027,0,.053,0,.079H4.358V4.806H18.089v6.919H15.757Z"/><path class="a" d="M96.725,115.762v-2.307a.477.477,0,1,0-.954,0v2.505a.477.477,0,0,0,.14.337l1.1,1.1a.477.477,0,0,0,.675-.675Z" transform="translate(-85.024 -103.997)"/></g></svg>