<svg xmlns="http://www.w3.org/2000/svg" width="27.197" height="28.139" viewBox="0 0 27.197 28.139"><defs><style>.a{fill:#00a4ff;}</style></defs><path class="a" d="M29.772,1.648H24.337V.829a.829.829,0,1,0-1.659,0v.818H17.832V.829a.829.829,0,0,0-1.659,0v.818h-4.64V.829a.829.829,0,0,0-1.659,0v.818H4.233a.83.83,0,0,0-.829.829V21.219a.83.83,0,0,0,.829.829H9.324a7.885,7.885,0,0,0,15.356,0h5.091a.83.83,0,0,0,.829-.829V2.477a.829.829,0,0,0-.829-.829ZM9.874,3.307v.75a.829.829,0,0,0,1.659,0v-.75h4.64v.75a.829.829,0,0,0,1.659,0v-.75h4.846v.75a.829.829,0,1,0,1.659,0v-.75h4.606V6.7H5.063V3.307ZM17,26.48a6.228,6.228,0,1,1,6.228-6.228A6.235,6.235,0,0,1,17,26.48Zm7.884-6.09c0-.046,0-.092,0-.138a7.887,7.887,0,0,0-15.774,0c0,.046,0,.092,0,.138H5.063V8.357H28.942V20.389H24.886Z" transform="translate(-3.404)"/><path class="a" d="M97.43,117.82v-4.013a.829.829,0,0,0-1.659,0v4.356a.83.83,0,0,0,.243.587l1.906,1.907a.829.829,0,0,0,1.173-1.173Z" transform="translate(-83.002 -97.36)"/></svg>