<svg xmlns="http://www.w3.org/2000/svg" width="21.343" height="21.313" viewBox="0 0 21.343 21.313"><defs><style>.a{fill:#02050a;stroke:#02050a;stroke-width:0.4px;}</style></defs><g transform="translate(0.215 0.2)"><g transform="translate(0)"><path class="a" d="M20.6,14.946c-2.46-2.46-2.83-3.7-2.83-7.626a7.318,7.318,0,1,0-14.636,0A12.366,12.366,0,0,1,2.79,11.2,8.968,8.968,0,0,1,.308,14.946a1.046,1.046,0,0,0,.739,1.785h5.8l-.053.523a3.659,3.659,0,1,0,7.318,0l-.053-.523h5.8A1.046,1.046,0,0,0,20.6,14.946ZM10.457,19.868a2.614,2.614,0,0,1-2.614-2.614l.053-.523h5.122l.053.523A2.614,2.614,0,0,1,10.457,19.868ZM1.048,15.685c3.136-3.137,3.136-5.228,3.136-8.365a6.273,6.273,0,1,1,12.545,0c0,3.137,0,5.228,3.136,8.365Z" transform="translate(0)"/></g></g></svg>