<svg xmlns="http://www.w3.org/2000/svg" width="11.657" height="18.278" viewBox="0 0 11.657 18.278"><defs><style>.a{fill:#fff;}</style></defs><g transform="translate(0 0)"><path class="a" d="M84.347,4.141a.4.4,0,0,0-.3-.117h-2.22A4.493,4.493,0,0,0,81,2.155h3.025a.4.4,0,0,0,.415-.415V.415A.4.4,0,0,0,84.022,0h-10.8a.4.4,0,0,0-.415.415V2.142a.421.421,0,0,0,.415.415H75.1q2.739,0,3.479,1.467H73.221a.4.4,0,0,0-.415.415V5.764a.4.4,0,0,0,.415.415h5.543A2.537,2.537,0,0,1,77.434,7.8a5.858,5.858,0,0,1-2.759.558H73.221a.421.421,0,0,0-.415.415v1.649a.388.388,0,0,0,.117.286q2.492,2.648,6.465,7.413a.383.383,0,0,0,.325.156h2.531a.377.377,0,0,0,.377-.234.355.355,0,0,0-.052-.441q-3.79-4.648-5.958-6.958a6.584,6.584,0,0,0,3.583-1.428,4.853,4.853,0,0,0,1.675-3.038h2.181a.4.4,0,0,0,.415-.415V4.44A.4.4,0,0,0,84.347,4.141Z" transform="translate(-72.806 0)"/></g></svg>