<svg xmlns="http://www.w3.org/2000/svg" width="8.494" height="13.024" viewBox="0 0 8.494 13.024"><defs><style>.a{fill:#364044;}</style></defs><path class="a" d="M65.293,2.368H63.952A3.352,3.352,0,0,0,63.3,1.184h1.993a.592.592,0,1,0,0-1.184h-7.31a.592.592,0,0,0-.592.592h0a.592.592,0,0,0,.592.592h2.782a2.173,2.173,0,0,1,1.913,1.184h-4.7a.592.592,0,1,0,0,1.184h4.924a2.173,2.173,0,0,1-2.161,1.973H57.983a.592.592,0,0,0-.592.592h0a.592.592,0,0,0,.592.592h2.782A2.173,2.173,0,0,1,62.917,8.88v3.552a.592.592,0,1,0,1.184,0V8.88a3.353,3.353,0,0,0-1.455-2.763,3.355,3.355,0,0,0,1.448-2.565h1.2a.592.592,0,1,0,0-1.184Z" transform="translate(-57.391 0)"/></svg>