<svg xmlns="http://www.w3.org/2000/svg" width="14.063" height="16" viewBox="0 0 14.063 16"><defs><style>.a{fill:#c64c00;}</style></defs><path class="a" d="M42.25,10.375a2.8,2.8,0,0,0-1.946.784L37.3,9.3a3.279,3.279,0,0,0,0-2.592L40.3,4.841a2.807,2.807,0,1,0-.561-.755L36.8,5.905a3.281,3.281,0,1,0,0,4.189l2.938,1.82a2.812,2.812,0,1,0,2.508-1.54Zm0-9.437a1.875,1.875,0,1,1-1.875,1.875A1.877,1.877,0,0,1,42.25.938Zm-7.969,9.406A2.344,2.344,0,1,1,36.625,8,2.346,2.346,0,0,1,34.281,10.344Zm7.969,4.719a1.875,1.875,0,1,1,1.875-1.875A1.877,1.877,0,0,1,42.25,15.063Z" transform="translate(-31)"/></svg>