
<svg xmlns="http://www.w3.org/2000/svg" width="89.519" height="89.519" viewBox="0 0 89.519 89.519">
  <g id="Group_3274" data-name="Group 3274" transform="translate(-702.558 -430.575)">
    <g id="Group_3157" data-name="Group 3157" transform="translate(702.558 430.575)">
      <g id="Group_3155" data-name="Group 3155" transform="translate(0 0)">
        <circle id="Ellipse_139" data-name="Ellipse 139" cx="44.76" cy="44.76" r="44.76" transform="translate(0 0)" fill="#ff6301"/>
      </g>
    </g>
    <path id="sharing" d="M70.851,36.751a9.928,9.928,0,0,0-6.9,2.779L53.3,32.929a11.613,11.613,0,0,0,0-9.18l10.655-6.6a9.942,9.942,0,1,0-1.987-2.675L51.563,20.918a11.623,11.623,0,1,0,0,14.84l10.406,6.447a9.962,9.962,0,1,0,8.883-5.454Zm0-33.431a6.642,6.642,0,1,1-6.642,6.642A6.649,6.649,0,0,1,70.851,3.321ZM42.623,36.641a8.3,8.3,0,1,1,8.3-8.3A8.312,8.312,0,0,1,42.623,36.641ZM70.851,53.356a6.642,6.642,0,1,1,6.642-6.642A6.649,6.649,0,0,1,70.851,53.356Z" transform="translate(687.069 447.361)" fill="#fff"/>
  </g>
</svg>

