<svg xmlns="http://www.w3.org/2000/svg" width="17.375" height="17.376" viewBox="0 0 17.375 17.376"><defs><style>.a{fill:#ff6300;}</style></defs><path class="a" d="M8.688,0a8.688,8.688,0,0,0,0,17.376.535.535,0,1,0,0-1.071A7.617,7.617,0,1,1,16.3,8.689a4.936,4.936,0,0,1-2.271,4.231,3.283,3.283,0,0,1-1.574.4,2.516,2.516,0,0,0,.846-.814,1.1,1.1,0,0,0,.127-.191,8.655,8.655,0,0,0,.3-1.338c.129-.567-2.478-1.672-2.7-.965a6.756,6.756,0,0,1-.372,1.307c-.146.194-.507.1-.732-.089C9.324,10.728,8.661,9.983,8.079,9.4h0l-.049-.048L7.981,9.3h0c-.588-.581-1.333-1.244-1.839-1.839-.191-.226-.284-.585-.089-.732a6.766,6.766,0,0,1,1.307-.371c.705-.226-.4-2.835-.966-2.7a8.529,8.529,0,0,0-1.338.294,1.219,1.219,0,0,0-.191.128c-1.489.944-1.681,3.236-.228,4.943.554.653,1.131,1.285,1.726,1.9l0,0,.051.048.047.051,0,0A16.378,16.378,0,0,0,9,13.277c2.5,1.671,4.421,1.2,5.552.584a6,6,0,0,0,2.826-5.17A8.7,8.7,0,0,0,8.688,0Z"/></svg>