<?xml version="1.0"?>
<svg xmlns="http://www.w3.org/2000/svg" id="Capa_1" enable-background="new 0 0 512.206 512.206" height="512px" viewBox="0 0 512.206 512.206" width="512px"><g><path d="m492.771 338.819h-12.249c2.178-39.935-3.513-76.374-16.95-108.42-12.167-29.017-30.784-54.729-55.336-76.423-33.055-29.207-72.475-47.322-113.425-54.367v-19.861c0-21.674-17.633-39.307-39.307-39.307-.792 0-1.589.024-2.371.07-4.134.248-7.286 3.801-7.038 7.936s3.796 7.289 7.935 7.038c.487-.029.979-.043 1.473-.043 13.403 0 24.307 10.904 24.307 24.307v17.781c-16.157-1.704-32.458-1.706-48.614-.01v-17.772c0-3.197.609-6.302 1.81-9.227 1.573-3.832-.257-8.213-4.089-9.787-3.83-1.573-8.213.257-9.787 4.089-1.947 4.741-2.934 9.763-2.934 14.924v19.844c-41.011 7.036-80.483 25.175-113.56 54.439-32.386 28.653-54.228 64.031-64.918 105.152-1.042 4.009 1.363 8.104 5.372 9.146 4.008 1.04 8.103-1.362 9.146-5.372 9.927-38.183 30.229-71.051 60.34-97.692 81.409-72.027 204.245-72.046 285.728-.049 48.762 43.086 71.35 101.463 67.196 173.604h-419.996c-.852-14.875-.569-29.298.847-42.961.427-4.12-2.567-7.806-6.687-8.233-4.113-.426-7.806 2.566-8.233 6.687-1.471 14.194-1.777 29.134-.939 44.507h-11.056c-10.717 0-19.436 8.719-19.436 19.436v45.353c0 10.717 8.719 19.436 19.436 19.436h6.92l4.33 15.068c5.694 19.815 24.07 33.654 44.687 33.654h313.731c4.142 0 7.5-3.358 7.5-7.5s-3.358-7.5-7.5-7.5h-313.732c-13.965 0-26.413-9.374-30.27-22.796l-3.14-10.926h427.08l-3.14 10.926c-3.857 13.422-16.304 22.796-30.269 22.796h-12.531c-4.142 0-7.5 3.358-7.5 7.5s3.358 7.5 7.5 7.5h12.531c20.617 0 38.992-13.839 44.686-33.654l4.33-15.068h8.12c10.717 0 19.436-8.719 19.436-19.436v-45.353c.001-10.717-8.718-19.436-19.434-19.436zm4.435 64.789c0 2.446-1.99 4.436-4.436 4.436h-473.334c-2.446 0-4.436-1.99-4.436-4.436v-45.353c0-2.446 1.99-4.436 4.436-4.436h19.067 433.997 20.271c2.446 0 4.436 1.99 4.436 4.436v45.353z" data-original="#000000" class="active-path" data-old_color="#000000" fill="#FFFFFF"/></g> </svg>
