<svg xmlns="http://www.w3.org/2000/svg" width="18.745" height="15.592" viewBox="0 0 18.745 15.592">
  <path id="twitter" d="M18.447,36.3a7.422,7.422,0,0,1-1.292.436,4.03,4.03,0,0,0,1.064-1.694h0a.211.211,0,0,0-.309-.246h0a7.458,7.458,0,0,1-1.976.816.5.5,0,0,1-.123.015.524.524,0,0,1-.346-.132,4.041,4.041,0,0,0-2.674-1.009,4.321,4.321,0,0,0-1.28.2A3.915,3.915,0,0,0,8.871,37.51,4.311,4.311,0,0,0,8.775,39a.145.145,0,0,1-.036.113.15.15,0,0,1-.111.051H8.613A10.6,10.6,0,0,1,1.33,35.27h0a.211.211,0,0,0-.346.027h0a4.046,4.046,0,0,0,.657,4.912,3.621,3.621,0,0,1-.922-.357h0a.211.211,0,0,0-.314.182h0a4.046,4.046,0,0,0,2.36,3.728H2.679A3.637,3.637,0,0,1,2,43.7H2a.211.211,0,0,0-.241.272h0a4.05,4.05,0,0,0,3.2,2.755A7.457,7.457,0,0,1,.78,47.994H.313a.309.309,0,0,0-.3.233.32.32,0,0,0,.153.354,11.092,11.092,0,0,0,5.574,1.5,11.244,11.244,0,0,0,4.763-1.01,10.518,10.518,0,0,0,3.485-2.611,11.449,11.449,0,0,0,2.134-3.574,11.29,11.29,0,0,0,.725-3.912v-.062a.688.688,0,0,1,.257-.535,7.988,7.988,0,0,0,1.607-1.764h0a.211.211,0,0,0-.261-.311Z" transform="translate(-0.001 -34.491)" fill="#ff6301"/>
</svg>
