<svg id="Layer_1" data-name="Layer 1" xmlns="http://www.w3.org/2000/svg" viewBox="0 0 100 100"><defs><style>.cls-1{fill:#010101;}</style></defs><title>Untitled-1</title><path class="cls-1" d="M87.28,75.37,80.92,64.65V36.58C80.92,18.62,67.28,4,50.44,4S20,18.62,20,36.58V64.65l-6.3,10.72a6.62,6.62,0,0,0,0,6.64,6.4,6.4,0,0,0,5.53,3.27H35.93c.58,6.49,6.83,11.61,14.51,11.61S64.33,91.77,65,85.28H81.7A6.39,6.39,0,0,0,87.31,82,6.67,6.67,0,0,0,87.28,75.37ZM50.44,91.08c-4.35,0-8-2.52-8.61-5.8H59.06C58.45,88.56,54.8,91.08,50.44,91.08Zm31.83-12a.63.63,0,0,1-.57.35H19.19a.61.61,0,0,1-.56-.35.8.8,0,0,1,0-.82l6.69-11.4a2.85,2.85,0,0,0,.4-1.45V36.58C25.77,21.82,36.81,9.81,50.44,9.81s24.68,12,24.68,26.77V65.44a2.85,2.85,0,0,0,.4,1.45l6.69,11.39A.8.8,0,0,1,82.27,79.12Z"/></svg>