<svg id="Layer_1" data-name="Layer 1" xmlns="http://www.w3.org/2000/svg" viewBox="0 0 100 100"><title>Untitled-1</title><g id="noun_Corporate_Users_1844940" data-name="noun Corporate Users 1844940"><g id="Group_2788" data-name="Group 2788"><path id="Path_3621" data-name="Path 3621" d="M32.85,8.27A3.82,3.82,0,0,0,29,12.09v2.1A3.81,3.81,0,0,0,32.85,18h0a3.8,3.8,0,0,0,3.81-3.81V12.11a3.8,3.8,0,0,0-3.78-3.84Z"/><path id="Path_3622" data-name="Path 3622" d="M67.2,8.27a3.83,3.83,0,0,0-3.82,3.82v2.1A3.82,3.82,0,0,0,67.2,18h0A3.81,3.81,0,0,0,71,14.19V12.11A3.83,3.83,0,0,0,67.2,8.27Z"/><path id="Path_3623" data-name="Path 3623" d="M84,28.39h.29a4.33,4.33,0,0,0,4.33-4.33h0V21.39a4.33,4.33,0,0,0-4.33-4.33H84a4.33,4.33,0,0,0-4.33,4.33h0v2.67A4.33,4.33,0,0,0,84,28.39Z"/><path id="Path_3624" data-name="Path 3624" d="M91.3,36.48h-.7l-1.94,3.05a1.44,1.44,0,0,1-1.92.47L84.3,38.64,82.06,40a1.46,1.46,0,0,1-.7.21,1.41,1.41,0,0,1-1.3-.72l-1.75-3h-.87a4.7,4.7,0,0,0-4.7,4.71c0,.15,0,.31,0,.46V57.12l4.64,6.35a1.32,1.32,0,0,1,.27.79L78.74,88a2.1,2.1,0,0,0,2.1,2h7.08A2.1,2.1,0,0,0,90,88l1.07-23.77a1.46,1.46,0,0,1,.26-.79L96,57.12V41.63a4.67,4.67,0,0,0-4.16-5.13l-.48,0Z"/><path id="Path_3625" data-name="Path 3625" d="M49.67,28.39H50a4.33,4.33,0,0,0,4.33-4.33h0V21.39A4.33,4.33,0,0,0,50,17.06h-.29a4.33,4.33,0,0,0-4.33,4.33h0v2.67a4.32,4.32,0,0,0,4.32,4.33Z"/><path id="Path_3626" data-name="Path 3626" d="M57,36.48h-.7l-1.94,3.05a1.43,1.43,0,0,1-1.92.47L50,38.64,47.71,40a1.43,1.43,0,0,1-.7.21,1.41,1.41,0,0,1-1.29-.72l-1.76-3H43.1a4.7,4.7,0,0,0-4.7,4.71c0,.15,0,.31,0,.46V57.12l4.64,6.35a1.32,1.32,0,0,1,.27.79L44.4,88a2.09,2.09,0,0,0,2.1,2h7.07a2.11,2.11,0,0,0,2.11-2l1.07-23.77a1.46,1.46,0,0,1,.26-.79l4.62-6.35V41.63A4.58,4.58,0,0,0,60.44,38,4.52,4.52,0,0,0,57,36.48Z"/><path id="Path_3627" data-name="Path 3627" d="M15.25,28.39h.28a4.33,4.33,0,0,0,4.34-4.33V21.39a4.33,4.33,0,0,0-4.34-4.33h-.28a4.33,4.33,0,0,0-4.34,4.33v2.67A4.33,4.33,0,0,0,15.25,28.39Z"/><path id="Path_3628" data-name="Path 3628" d="M22.62,36.5h-.7l-1.94,3a1.4,1.4,0,0,1-1.91.47l-2.46-1.36L13.37,40a1.36,1.36,0,0,1-.7.21,1.39,1.39,0,0,1-1.3-.72l-1.75-3H8.75a4.7,4.7,0,0,0-4.7,4.71c0,.15,0,.31,0,.46V57.16l4.64,6.35A1.35,1.35,0,0,1,9,64.3l1.07,23.75a2.1,2.1,0,0,0,2.1,2h7.08a2.09,2.09,0,0,0,2.1-2L22.4,64.3a1.52,1.52,0,0,1,.26-.79l4.62-6.35V41.67a4.59,4.59,0,0,0-1.19-3.62A4.45,4.45,0,0,0,22.62,36.5Z"/></g></g></svg>