<svg id="Layer_1" data-name="Layer 1" xmlns="http://www.w3.org/2000/svg" viewBox="0 0 100 100"><title>Untitled-1</title><g id="Group_69" data-name="Group 69"><path id="Path_52" data-name="Path 52" d="M92.3,47.43H85.61a35.73,35.73,0,0,0-33.49-33.5h0V7.23a2.24,2.24,0,0,0-4.47,0V14a35.73,35.73,0,0,0-33.49,33.5H7.44a2.23,2.23,0,0,0,0,4.46h6.81A35.71,35.71,0,0,0,47.63,85.4h0v6.7a2.24,2.24,0,0,0,4.47,0V85.4h0A35.72,35.72,0,0,0,85.59,51.91h6.7a2.24,2.24,0,0,0,0-4.47ZM49.87,80.92A31.25,31.25,0,1,1,81.11,49.68,31.24,31.24,0,0,1,49.87,80.92Z"/><path id="Path_53" data-name="Path 53" d="M49.87,31.79A17.87,17.87,0,1,0,67.73,49.66,17.87,17.87,0,0,0,49.87,31.79Zm0,31.25A13.4,13.4,0,1,1,63.25,49.62v0A13.41,13.41,0,0,1,49.87,63Z"/></g></svg>