<svg id="Layer_1" data-name="Layer 1" xmlns="http://www.w3.org/2000/svg" viewBox="0 0 100 100"><defs><style>.cls-1{isolation:isolate;}</style></defs><title>Untitled-1</title><path id="Youtube_copy" data-name="Youtube copy" class="cls-1" d="M49.53,87.09c-.94,0-23.18-.16-30.25-1h-.2l-.2,0c-.22-.06-.63-.11-1.05-.17A15.86,15.86,0,0,1,7.36,80.85,25.36,25.36,0,0,1,3.05,69.46v-.07a152.47,152.47,0,0,1-1-16V46.16A157.89,157.89,0,0,1,3,30,23.51,23.51,0,0,1,7.42,18.52a15.38,15.38,0,0,1,10.77-5.08l.29,0c12.27-.92,30.85-1.09,31-1.09h.06c.18,0,18.77.17,31,1.09h.07l.36,0a14.71,14.71,0,0,1,10.7,5.16A25.38,25.38,0,0,1,96.06,30V30A155.09,155.09,0,0,1,97,46.16V53.4a154.82,154.82,0,0,1-.94,16v.07a25.47,25.47,0,0,1-4.33,11.41v0A15.42,15.42,0,0,1,80.94,86H80.7c-12.32,1.07-30.37,1.09-31.13,1.09ZM19,20.37l-.24,0a8.59,8.59,0,0,0-6.3,2.87l0,0a16.77,16.77,0,0,0-2.58,7.55c0,.08-.9,7.76-.9,15.31V53.4a146.73,146.73,0,0,0,.9,15.11,18.72,18.72,0,0,0,2.64,7.67l0,0A9.1,9.1,0,0,0,18.78,79a14.05,14.05,0,0,1,1.42.23c6.88.72,28.74.89,29.37.89s18.63,0,30.5-1.06l.26,0a8.56,8.56,0,0,0,6.28-2.85,18.8,18.8,0,0,0,2.63-7.66,149.69,149.69,0,0,0,.9-15.11V46.16a143.82,143.82,0,0,0-.9-15.25,18.77,18.77,0,0,0-2.64-7.67v0a7.87,7.87,0,0,0-6.08-2.83l-.45,0c-11.81-.89-29.7-1.05-30.53-1.06S30.83,19.5,19,20.37ZM36.63,34.75l25.81,15.3L36.63,64.67Z"/></svg>