<svg id="Layer_1" data-name="Layer 1" xmlns="http://www.w3.org/2000/svg" viewBox="0 0 100 100"><title>Untitled-1</title><g id="Group_2611" data-name="Group 2611"><g id="Group_2610" data-name="Group 2610"><path id="Path_3583" data-name="Path 3583" d="M76.3,54A4,4,0,0,0,75,51.16a38.08,38.08,0,0,0-50.54,0,4,4,0,0,0-.32,5.67l.16.17,7.64,7.63a4,4,0,0,0,5.42.24,19.25,19.25,0,0,1,24.74,0,4,4,0,0,0,5.43-.24L75.13,57A4.06,4.06,0,0,0,76.3,54ZM64.66,61.79h0a23.28,23.28,0,0,0-29.91,0L27.1,54.17a34.06,34.06,0,0,1,45.19,0Z"/></g></g><g id="Group_2613" data-name="Group 2613"><g id="Group_2612" data-name="Group 2612"><path id="Path_3584" data-name="Path 3584" d="M55.67,73.6a8.45,8.45,0,1,0,2.48,6A8.45,8.45,0,0,0,55.67,73.6Zm-2.84,9.11a4.44,4.44,0,1,1,0-6.27h0A4.44,4.44,0,0,1,52.83,82.71Z"/></g></g><g id="Group_2615" data-name="Group 2615"><g id="Group_2614" data-name="Group 2614"><path id="Path_3585" data-name="Path 3585" d="M96,30.28a67.69,67.69,0,0,0-92.53,0A4,4,0,0,0,3.24,36l.09.09L11,43.68a4,4,0,0,0,5.56.11,48.89,48.89,0,0,1,66.36,0,4,4,0,0,0,5.56-.11l7.63-7.62a4,4,0,0,0,0-5.69L96,30.28ZM85.61,40.84a52.89,52.89,0,0,0-71.81,0L6.18,33.21a63.68,63.68,0,0,1,87,0h0Z"/></g></g></svg>