<svg id="Layer_1" data-name="Layer 1" xmlns="http://www.w3.org/2000/svg" viewBox="0 0 100 100"><defs><style>.cls-1{isolation:isolate;}</style></defs><title>Untitled-1</title><path id="twitter_copy" data-name="twitter copy" class="cls-1" d="M88,25.13a29.52,29.52,0,0,1-8.91,2.63,16.62,16.62,0,0,0,6.81-9.24,29.48,29.48,0,0,1-9.84,4.05A14.93,14.93,0,0,0,64.75,17.3,16.12,16.12,0,0,0,49.26,34a18.49,18.49,0,0,0,.42,3.79A43,43,0,0,1,17.74,20.33a17.71,17.71,0,0,0-2.11,8.4,17.12,17.12,0,0,0,6.89,13.92,14.49,14.49,0,0,1-7-2.11v.21A16.44,16.44,0,0,0,27.94,57.14a14.48,14.48,0,0,1-4.08.59,13.67,13.67,0,0,1-2.92-.31A15.71,15.71,0,0,0,35.41,69,29.68,29.68,0,0,1,16.17,76.2,28.46,28.46,0,0,1,12.48,76a41.6,41.6,0,0,0,23.75,7.51c28.5,0,44.08-25.46,44.08-47.54,0-.72,0-1.45,0-2.16A33,33,0,0,0,88,25.12Z"/></svg>