<svg id="Layer_1" data-name="Layer 1" xmlns="http://www.w3.org/2000/svg" viewBox="0 0 100 100"><title>Untitled-1</title><g id="Group_2631" data-name="Group 2631"><path id="Path_3590" data-name="Path 3590" d="M30.55,67.19h44a6.88,6.88,0,0,0,6.88-6.9h0v-10H30.55Zm46.3-6.91a2.3,2.3,0,0,1-2.29,2.3H69.07V54.92h7.78Zm-41.7-5.36H64.47V62.6H35.15Z"/><rect id="Rectangle_823" data-name="Rectangle 823" x="24.67" y="51.66" width="4.59" height="14.21"/><path id="Path_3591" data-name="Path 3591" d="M27.91,33.72a9.8,9.8,0,0,0-3.33,8.93,9,9,0,0,0,6.29,6.57l1.57-4.31a4.78,4.78,0,0,1-3.36-3.15A5.33,5.33,0,0,1,31,37.1a9.4,9.4,0,0,0,4.12-7.25,8.42,8.42,0,0,0-7.76-8.59v4.59a3.88,3.88,0,0,1,3.16,4C30.53,30.92,30.31,31.53,27.91,33.72Z"/><path id="Path_3592" data-name="Path 3592" d="M39.77,29.85c0,1.07-.23,1.69-2.62,3.88a9.82,9.82,0,0,0-3.34,8.93,9,9,0,0,0,6.3,6.57l1.56-4.32a4.73,4.73,0,0,1-3.35-3.14,5.31,5.31,0,0,1,1.93-4.66,9.4,9.4,0,0,0,4.13-7.26,8.43,8.43,0,0,0-7.76-8.59v4.59A3.91,3.91,0,0,1,39.77,29.85Z"/><path id="Path_3593" data-name="Path 3593" d="M50.37,92.75A43.38,43.38,0,1,0,7,49.38,43.38,43.38,0,0,0,50.37,92.75Zm0-82.16A38.79,38.79,0,1,1,11.59,49.38,38.79,38.79,0,0,1,50.37,10.59Z"/></g></svg>