<svg id="Layer_1" data-name="Layer 1" xmlns="http://www.w3.org/2000/svg" viewBox="0 0 100 100"><title>Untitled-1</title><path id="serving-dish" d="M92.11,65.24H88.94a38.34,38.34,0,0,0-3.5-13.83A1.34,1.34,0,0,0,83,52.54a35.39,35.39,0,0,1,3.24,12.7H25.16a1.34,1.34,0,1,0,0,2.67h67a1.22,1.22,0,0,1,1.22,1.22v1.63A1.22,1.22,0,0,1,92.11,72H8.69a1.22,1.22,0,0,1-1.22-1.22V69.13a1.22,1.22,0,0,1,1.22-1.22H18.94a1.34,1.34,0,0,0,0-2.67H14.53A35.94,35.94,0,0,1,48,31.79h0l1.08-.05h2.54l.73,0,.39,0A36,36,0,0,1,80.06,47.34a1.33,1.33,0,0,0,2.2-1.51,38.68,38.68,0,0,0-26.39-16.4,6.47,6.47,0,0,0,1-3.52c0-.73-.33-2.06-2.49-2.86a13.45,13.45,0,0,0-8,0c-2.16.8-2.49,2.14-2.49,2.86a6.54,6.54,0,0,0,1,3.52A38.63,38.63,0,0,0,11.86,65.24H8.69A3.89,3.89,0,0,0,4.8,69.13v1.63c0,2.15,3.89,3.89,3.89,3.89H92.11S96,72.9,96,70.76V69.13A3.89,3.89,0,0,0,92.11,65.24ZM50.4,25.11a6.24,6.24,0,0,1,3.84.86,3.85,3.85,0,0,1-1.7,3.13l-.78,0H51.5l-1.1,0H49.24l-.46,0-.52,0A3.83,3.83,0,0,1,46.56,26,6.22,6.22,0,0,1,50.4,25.11Z"/></svg>