<svg id="Layer_1" data-name="Layer 1" xmlns="http://www.w3.org/2000/svg" viewBox="0 0 100 100"><title>Untitled-1</title><g id="Group_2630" data-name="Group 2630"><g id="Group_2629" data-name="Group 2629"><path id="Path_3570" data-name="Path 3570" d="M81.19,10A14.59,14.59,0,0,0,69.9,15.32a39.21,39.21,0,0,0-39.12,0,14.63,14.63,0,1,0-18,22.33,39.48,39.48,0,1,0,75.19,0A14.63,14.63,0,0,0,81.19,10Zm4,25.09-1.6.61.58,1.61a36,36,0,1,1-67.61,0l.59-1.61-1.6-.61A11.17,11.17,0,1,1,28.88,18.57L29.81,20l1.45-.91a35.75,35.75,0,0,1,38.19,0L70.9,20l.94-1.44A11.17,11.17,0,1,1,85.18,35.09Z"/><circle id="Ellipse_47" data-name="Ellipse 47" cx="34.27" cy="50.73" r="5.65"/><circle id="Ellipse_48" data-name="Ellipse 48" cx="66.41" cy="50.73" r="5.65"/><path id="Path_3571" data-name="Path 3571" d="M54.53,60.52H46.15a5.53,5.53,0,0,0,0,11.06h8.38a5.53,5.53,0,1,0,0-11.06Z"/><path id="Path_3572" data-name="Path 3572" d="M52.08,27.8v-14H48.6v14Z"/></g></g></svg>