<svg id="Layer_1" data-name="Layer 1" xmlns="http://www.w3.org/2000/svg" viewBox="0 0 100 100"><title>Untitled-1</title><g id="Group_2698" data-name="Group 2698"><g id="Group_2697" data-name="Group 2697"><g id="Group_2663" data-name="Group 2663"><g id="Group_2662" data-name="Group 2662"><g id="Group_2661" data-name="Group 2661"><g id="Group_2660" data-name="Group 2660"><g id="Group_2659" data-name="Group 2659"><g id="Group_2658" data-name="Group 2658"><g id="Group_2657" data-name="Group 2657"><g id="Group_2656" data-name="Group 2656"><path id="Path_3594" data-name="Path 3594" d="M75.29,74.32A2,2,0,0,1,74,73.81L27.73,32.21a6.13,6.13,0,0,0-8.21,9.11,2,2,0,1,1-2.7,3,10.16,10.16,0,1,1,13-15.61,6.91,6.91,0,0,1,.57.51l46.22,41.6a2,2,0,0,1,.15,2.84,2,2,0,0,1-1.5.66Z"/></g></g></g></g></g></g></g></g><g id="Group_2671" data-name="Group 2671"><g id="Group_2670" data-name="Group 2670"><g id="Group_2669" data-name="Group 2669"><g id="Group_2668" data-name="Group 2668"><g id="Group_2667" data-name="Group 2667"><g id="Group_2666" data-name="Group 2666"><g id="Group_2665" data-name="Group 2665"><g id="Group_2664" data-name="Group 2664"><path id="Path_3595" data-name="Path 3595" d="M78.28,95.93A9.73,9.73,0,1,1,88,86.2v0A9.74,9.74,0,0,1,78.28,95.93Zm0-15.42A5.7,5.7,0,1,0,84,86.21h0a5.68,5.68,0,0,0-5.69-5.68Z"/></g></g></g></g></g></g></g></g><g id="Group_2679" data-name="Group 2679"><g id="Group_2678" data-name="Group 2678"><g id="Group_2677" data-name="Group 2677"><g id="Group_2676" data-name="Group 2676"><g id="Group_2675" data-name="Group 2675"><g id="Group_2674" data-name="Group 2674"><g id="Group_2673" data-name="Group 2673"><g id="Group_2672" data-name="Group 2672"><path id="Path_3596" data-name="Path 3596" d="M34.25,96A21.28,21.28,0,1,1,55.53,74.67h0A21.32,21.32,0,0,1,34.25,96Zm0-38.54A17.26,17.26,0,1,0,51.5,74.67h0A17.27,17.27,0,0,0,34.25,57.39Z"/></g></g></g></g></g></g></g></g><g id="Group_2687" data-name="Group 2687"><g id="Group_2686" data-name="Group 2686"><g id="Group_2685" data-name="Group 2685"><g id="Group_2684" data-name="Group 2684"><g id="Group_2683" data-name="Group 2683"><g id="Group_2682" data-name="Group 2682"><g id="Group_2681" data-name="Group 2681"><g id="Group_2680" data-name="Group 2680"><path id="Path_3597" data-name="Path 3597" d="M51.49,31.19A13.19,13.19,0,1,1,64.68,18h0A13.21,13.21,0,0,1,51.49,31.19Zm0-22.36A9.16,9.16,0,1,0,60.65,18,9.16,9.16,0,0,0,51.49,8.83Z"/></g></g></g></g></g></g></g></g><g id="Group_2696" data-name="Group 2696"><g id="Group_2695" data-name="Group 2695"><g id="Group_2694" data-name="Group 2694"><g id="Group_2693" data-name="Group 2693"><g id="Group_2692" data-name="Group 2692"><g id="Group_2691" data-name="Group 2691"><g id="Group_2690" data-name="Group 2690"><g id="Group_2689" data-name="Group 2689"><g id="Group_2688" data-name="Group 2688"><path id="Path_3598" data-name="Path 3598" d="M73.72,57.69a11.39,11.39,0,0,1-11.16-8.87l-.07-.55c0-.1,0-.21-.05-.31a11.73,11.73,0,0,0-11.12-9.32,11.24,11.24,0,0,0-8.72,4.12,2,2,0,1,1-3.11-2.55h0a15.24,15.24,0,0,1,11.83-5.6A15.84,15.84,0,0,1,66.38,47.13a4.94,4.94,0,0,1,.12.77V48a7.39,7.39,0,0,0,7.21,5.64,2,2,0,0,1,0,4h0Z"/></g></g></g></g></g></g></g></g></g></g></g></svg>