<svg id="Layer_1" data-name="Layer 1" xmlns="http://www.w3.org/2000/svg" viewBox="0 0 100 100"><title>Untitled-1</title><g id="calendar"><path id="Path_50" data-name="Path 50" d="M94,28.66a8.73,8.73,0,0,0-8.72-8.72H72.17V15.62a4.36,4.36,0,0,0-8.72,0v4.32H37.3V15.62a4.36,4.36,0,1,0-8.72,0v4.32H15.51A8.72,8.72,0,0,0,6.8,28.66V81a8.71,8.71,0,0,0,8.71,8.72s67-.06,69.73,0a8.49,8.49,0,0,0,6.43-2.6A7.9,7.9,0,0,0,94,81.41C94,79.28,94,28.66,94,28.66ZM15.51,81V28.66H28.59V33a4.36,4.36,0,1,0,8.71,0h0V28.66H63.45V33a4.36,4.36,0,0,0,8.72,0h0V28.66H85.24c.13,0,.09,52.07,0,52.29Z"/></g></svg>