<svg id="Layer_1" data-name="Layer 1" xmlns="http://www.w3.org/2000/svg" viewBox="0 0 100 100"><defs><style>.cls-1{isolation:isolate;}</style></defs><title>Untitled-1</title><path id="instagram_copy" data-name="instagram copy" class="cls-1" d="M35.62,88.43A22.12,22.12,0,0,1,13.9,66V35.47A22.12,22.12,0,0,1,35.62,13h29.5A22.12,22.12,0,0,1,86.84,35.47V66A22.11,22.11,0,0,1,65.12,88.43Zm-14.39-53V66a14.65,14.65,0,0,0,14.4,14.88h29.5A14.65,14.65,0,0,0,79.52,66V35.47A14.65,14.65,0,0,0,65.13,20.59H35.62A14.65,14.65,0,0,0,21.23,35.47ZM31.5,50.71a19.22,19.22,0,0,1,18.87-19.5,19.21,19.21,0,0,1,18.87,19.5A19.21,19.21,0,0,1,50.37,70.22,19.22,19.22,0,0,1,31.5,50.71Zm7.34,0A11.54,11.54,0,1,0,50.38,38.79h0A11.73,11.73,0,0,0,38.84,50.71ZM64.77,31.34A4.52,4.52,0,1,1,69.29,36,4.6,4.6,0,0,1,64.77,31.34Z"/></svg>