<svg xmlns="http://www.w3.org/2000/svg" width="12.379" height="11.017" viewBox="0 0 12.379 11.017"><defs><style>.a{fill:#10a3ff;}</style></defs><g transform="translate(-169.028 -123.981)"><g transform="translate(169.028 123.981)"><path class="a" d="M154.714,57.6a.514.514,0,0,0-.514.514V58.4a.514.514,0,0,0,.514.514h0a.514.514,0,0,0,.514-.514v-.28A.513.513,0,0,0,154.714,57.6Z" transform="translate(-150.835 -57.6)"/><path class="a" d="M321.314,57.6a.514.514,0,0,0-.514.514V58.4a.514.514,0,0,0,.514.514h0a.514.514,0,0,0,.514-.514v-.28A.517.517,0,0,0,321.314,57.6Z" transform="translate(-312.809 -57.6)"/><path class="a" d="M400.383,101.824h.039a.583.583,0,0,0,.583-.583v-.358a.583.583,0,0,0-.583-.583h-.039a.583.583,0,0,0-.583.583v.358A.585.585,0,0,0,400.383,101.824Z" transform="translate(-389.615 -99.114)"/><path class="a" d="M368.695,194.4H368.6l-.261.411a.192.192,0,0,1-.258.064l-.328-.183-.3.18a.187.187,0,0,1-.094.028.19.19,0,0,1-.175-.1l-.236-.405h-.117a.634.634,0,0,0-.63.7v2.085l.625.855a.179.179,0,0,1,.036.105l.142,3.2a.283.283,0,0,0,.283.275h.952a.282.282,0,0,0,.283-.272l.142-3.2a.2.2,0,0,1,.036-.105l.622-.855V195.1a.63.63,0,0,0-.625-.694Z" transform="translate(-356.944 -190.602)"/><path class="a" d="M233.883,101.824h.039a.583.583,0,0,0,.583-.583v-.358a.583.583,0,0,0-.583-.583h-.039a.583.583,0,0,0-.583.583v.358A.583.583,0,0,0,233.883,101.824Z" transform="translate(-227.738 -99.114)"/><path class="a" d="M202.095,194.4H202l-.261.411a.192.192,0,0,1-.258.064l-.328-.183-.3.18a.187.187,0,0,1-.094.028.19.19,0,0,1-.175-.1l-.236-.405h-.117a.634.634,0,0,0-.63.7v2.085l.625.855a.179.179,0,0,1,.036.105l.142,3.2a.283.283,0,0,0,.283.275h.952a.282.282,0,0,0,.283-.272l.142-3.2a.2.2,0,0,1,.036-.105l.622-.855V195.1a.619.619,0,0,0-.161-.489A.609.609,0,0,0,202.095,194.4Z" transform="translate(-194.97 -190.602)"/><path class="a" d="M66.883,101.824h.039a.583.583,0,0,0,.583-.583v-.358a.583.583,0,0,0-.583-.583h-.039a.583.583,0,0,0-.583.583v.358A.583.583,0,0,0,66.883,101.824Z" transform="translate(-65.375 -99.114)"/><path class="a" d="M35.5,194.5H35.4l-.261.411a.192.192,0,0,1-.258.064l-.33-.183-.3.18a.187.187,0,0,1-.094.028.19.19,0,0,1-.175-.1l-.236-.4h-.117a.634.634,0,0,0-.63.7v2.085l.625.855a.179.179,0,0,1,.036.105l.142,3.2a.283.283,0,0,0,.283.275h.952a.282.282,0,0,0,.283-.272l.142-3.2a.2.2,0,0,1,.036-.105l.622-.855V195.2a.619.619,0,0,0-.161-.489A.6.6,0,0,0,35.5,194.5Z" transform="translate(-32.996 -190.699)"/></g></g></svg>