<svg xmlns="http://www.w3.org/2000/svg" xmlns:xlink="http://www.w3.org/1999/xlink" width="21.23" height="17.249" viewBox="0 0 21.23 17.249"><defs><style>.a{fill:url(#a);}.b{fill:url(#b);}.c{fill:url(#c);}</style><linearGradient id="a" x1="0.732" y1="-0.007" x2="0.732" y2="1.596" gradientUnits="objectBoundingBox"><stop offset="0" stop-color="#e93e3a"/><stop offset="0.355" stop-color="#ed683c"/><stop offset="0.705" stop-color="#f3903f"/><stop offset="1" stop-color="#fdc70c"/></linearGradient><linearGradient id="b" x1="4.072" y1="-12" x2="4.072" y2="13.459" xlink:href="#a"/><linearGradient id="c" x1="4.072" y1="-0.833" x2="4.072" y2="3.41" xlink:href="#a"/></defs><path class="a" d="M21.589,15.685,12.35.6A1.572,1.572,0,0,0,10.5.115a1.271,1.271,0,0,0-.621.493L.646,15.677a.991.991,0,0,0,.617,1.457,1.694,1.694,0,0,0,.618.115H20.35a1.26,1.26,0,0,0,1.38-1.086A.9.9,0,0,0,21.589,15.685Zm-1.239.478L1.886,16.156,11.111,1.079l9.242,15.084Zm0,0" transform="translate(-0.5 0)"/><g transform="translate(9.925 3.845)"><path class="b" d="M232.336,383.047h1.38v1.38h-1.38Zm0,0" transform="translate(-232.336 -373.386)"/><path class="c" d="M232.336,157.383h1.38v8.281h-1.38Zm0,0" transform="translate(-232.336 -157.383)"/></g></svg>