<svg xmlns="http://www.w3.org/2000/svg" width="45.134" height="36.089" viewBox="0 0 45.134 36.089"><defs><style>.a{fill:#e49871;}</style></defs><g transform="translate(9.936 14.032)"><g transform="translate(0 0)"><path class="a" d="M137.975,216.4a1.9,1.9,0,0,0-.634-1.362,18.078,18.078,0,0,0-23.993,0,1.905,1.905,0,0,0-.075,2.769l3.625,3.625a1.894,1.894,0,0,0,2.574.112,9.143,9.143,0,0,1,11.745,0,1.894,1.894,0,0,0,2.574-.112l3.625-3.625A1.919,1.919,0,0,0,137.975,216.4Zm-5.529,3.684h0a11.049,11.049,0,0,0-14.2,0l-3.63-3.621a16.171,16.171,0,0,1,21.451,0Z" transform="translate(-112.714 -210.489)"/></g></g><g transform="translate(18.556 28.065)"><path class="a" d="M217.35,370.849a4.013,4.013,0,1,0,1.175,2.838A3.987,3.987,0,0,0,217.35,370.849ZM216,375.176a2.106,2.106,0,1,1,0-2.978h0a2.106,2.106,0,0,1,0,2.978Z" transform="translate(-210.501 -369.674)"/></g><g transform="translate(0 0)"><g transform="translate(0 0)"><path class="a" d="M44.529,59.979a32.138,32.138,0,0,0-43.925,0,1.909,1.909,0,0,0-.046,2.742l3.618,3.618a1.9,1.9,0,0,0,2.642.052,23.2,23.2,0,0,1,31.5,0,1.9,1.9,0,0,0,2.642-.052l3.618-3.618a1.909,1.909,0,0,0-.046-2.742Zm-4.916,5.014a25.1,25.1,0,0,0-34.089,0L1.909,61.369a30.228,30.228,0,0,1,41.314,0l0,0Z" transform="translate(0.001 -51.303)"/></g></g></svg>