<svg xmlns="http://www.w3.org/2000/svg" width="24.363" height="16.35" viewBox="0 0 24.363 16.35"><defs><style>.a{fill:#00a4ff}</style></defs><path class="a" d="M22.952 0l-13.6.008a1.412 1.412 0 0 0-1.411 1.414v.648a2.742 2.742 0 0 0-1.1-.212 4.275 4.275 0 0 0-1.1.145.751.751 0 0 0-.3.161L.259 6.705A.77.77 0 0 0 0 7.298l.045 7.475a.9.9 0 0 0 .867.741c.021 0 1.953.081 3.661.081a20.039 20.039 0 0 0 2.245-.086 3.631 3.631 0 0 0 2.211-.829c.257-.187.485-.372.724-.557a1.619 1.619 0 0 0 2.724 1.56 1.652 1.652 0 0 0 .571.5 1.672 1.672 0 0 0 .733.173 1.617 1.617 0 0 0 1.446-.89l1.073-2.122a1.608 1.608 0 0 0 .1-1.239 1.553 1.553 0 0 0-.19-.374h6.728a1.418 1.418 0 0 0 1.416-1.413l.005-8.892A1.425 1.425 0 0 0 22.952 0zM12.934 12.7l-1.072 2.119a.608.608 0 1 1-1.085-.548l.882-1.737s.289-.705.75-.713a.6.6 0 0 1 .259.064.6.6 0 0 1 .3.352.584.584 0 0 1-.034.466zm-1.69-1.863l-.97.889h.009a35.768 35.768 0 0 1-2.22 1.768.341.341 0 0 0-.119.11 2.606 2.606 0 0 1-1.311.39c-.277.035-.858.03-2.059.03-1.044 0-2.344.015-3.054-.009l.012-6.4L6.3 3.435a2.943 2.943 0 0 1 .537-.055.915.915 0 0 1 .641.17v5.286a.761.761 0 0 0 .372.654c.027.015.058.013.086.026v.057l.071-.036a.731.731 0 0 0 .6-.03 14.065 14.065 0 0 1 4.41-1.663.624.624 0 0 1 .107.005.122.122 0 0 0 .013.022c.015.102.113.983-1.893 2.969zM15.4 12.88l-1.072 2.119a.619.619 0 0 1-.818.268.61.61 0 0 1-.266-.817l1.074-2.119a.605.605 0 0 1 .542-.335.613.613 0 0 1 .276.068.6.6 0 0 1 .3.351.586.586 0 0 1-.036.465zm8.022-2.562a.471.471 0 0 1-.471.471h-9.6a5.245 5.245 0 0 0 1.31-2.589 1.741 1.741 0 0 0-.25-1.165 1.441 1.441 0 0 0-1.393-.715A11.629 11.629 0 0 0 9 7.597v-2.11h14.419zm0-7.629L8.883 2.68V1.419a.471.471 0 0 1 .47-.471l13.6-.01a.489.489 0 0 1 .471.488z"/><path class="a" d="M22.348 9.916l-.01-1.278h-3.723l.012 1.28z"/></svg>