<svg data-name="Group 2724" xmlns="http://www.w3.org/2000/svg" width="98.577" height="89.535" viewBox="0 0 98.577 89.535"><path data-name="Path 2" d="M49.288 78.196a105.506 105.506 0 0 0-26.52 3.349C22.2 54.157 13.851 36.841 0 26.648c10.069-.647 16.669 2.942 20.876 9.715l-4.3 3.217c10.739 16.582 22.55-2.461 6.479-16.7 5.065-.324 8.387 1.479 10.5 4.888l-2.162 1.548c7.981 12.861 16.353 9.32 16.338 3.409l-.015-4.629c-3.134-.519-5.885-3.221-5.362-6.363.417-4.567.677-19.337 3.586-21.737v19.86a3.146 3.146 0 0 0 3.138 3.14c.071 0 .139 0 .211-.008s.139.008.211.008a3.146 3.146 0 0 0 3.138-3.138V-.004c2.904 2.4 3.162 17.17 3.585 21.741.519 3.142-2.231 5.844-5.362 6.363l-.015 4.624c-.015 5.912 8.354 9.453 16.334-3.408l-2.164-1.547c2.115-3.409 5.437-5.211 10.5-4.888-16.071 14.238-4.259 33.282 6.476 16.7l-4.3-3.217c4.207-6.773 10.81-10.363 20.88-9.715-13.854 10.193-22.2 27.51-22.768 54.9a105.527 105.527 0 0 0-26.516-3.353zm-26.535 5.879v5.46a118.948 118.948 0 0 1 26.535-3.21 118.974 118.974 0 0 1 26.535 3.21v-5.46a103.212 103.212 0 0 0-53.07 0z" fill="#ff6301" fill-rule="evenodd"/><path data-name="Path 3" d="M27.64 57.714l.57 1.764 1.848-.007-1.5 1.087.573 1.756-1.492-1.087-1.492 1.087.573-1.756-1.498-1.086 1.848.007z" fill="#fff" fill-rule="evenodd"/><path data-name="Path 4" d="M71.205 57.714l.566 1.764 1.848-.007-1.5 1.087.573 1.756-1.487-1.087-1.5 1.087.577-1.756-1.5-1.087 1.848.007z" fill="#fff" fill-rule="evenodd"/><path data-name="Path 5" d="M33.206 50.048c.241-.064.482-.124.722-.184a97.03 97.03 0 0 1 4.444-.982q2.89-.508 5.787-.847c1.08.922 2.152 1.874 3.232 2.837v6.209c-.636.6-1.268 1.178-1.9 1.772.632.493 1.264 1 1.9 1.509v7.172c-1.08 1.042-2.152 2.115-3.232 3.18-1.93.184-3.861.421-5.787.7q-2.224.361-4.444.809c-.241.049-.482.1-.722.147.113-.546.218-1.087.331-1.633V51.504c-.109-.485-.222-.971-.335-1.456zm5.166 3.161V67.24a94.595 94.595 0 0 1 3.259-.463c.357-.414.719-.809 1.084-1.215v-3.048c-.3-.354-.617-.707-.926-1.061q-1.71 1.27-3.417 2.589v-4.711q2.167-1.654 4.342-3.24v-2.442c-.365-.316-.726-.647-1.084-.963a95.529 95.529 0 0 0-3.258.523z" fill="#fff" fill-rule="evenodd"/><path data-name="Path 6" d="M49.198 49.239c-.147-.527-.29-1.05-.433-1.577q2.6-.011 5.2.132 1.484 3.725 2.969 7.5c.99 2.529 1.983 5.076 2.973 7.62 0-2.115-.008-4.241-.008-6.355V50.2c-.233-.587-.47-1.174-.7-1.757q3.053.621 6.111 1.516c-.211.478-.418.948-.621 1.426q-.006 4.792 0 9.591v9.58l.437 1.671a82.165 82.165 0 0 0-5.2-1.072q-1.49-3.731-2.976-7.424t-2.98-7.309v6.231c0 2.081.008 4.15.011 6.224.23.561.467 1.118.7 1.682q-3.059-.175-6.111-.158c.207-.546.414-1.091.617-1.641V49.239z" fill="#fff" fill-rule="evenodd"/></svg>