<svg xmlns="http://www.w3.org/2000/svg" width="15.581" height="12.876" viewBox="0 0 15.581 12.876"><defs><style>.a{fill:#fff;fill-rule:evenodd}</style></defs><path class="a" d="M8.033 4.408c-.344 1.284 1.052 2.719 2.651.249l-.4-.291a1.659 1.659 0 0 1 1.662-.774 3.943 3.943 0 0 0-1.236 1.524c-.908 1.735 1 3.045 2.245 1.118l-.679-.509a3.3 3.3 0 0 1 3.3-1.537c-2.193 1.613-3.514 4.354-3.6 8.688a16.794 16.794 0 0 0-8.375 0c-.09-4.334-1.411-7.075-3.6-8.688a3.3 3.3 0 0 1 3.3 1.537l-.68.509c1.247 1.928 3.154.617 2.245-1.118l.013-.006a3.942 3.942 0 0 0-1.234-1.518 1.66 1.66 0 0 1 1.662.774l-.4.291c1.591 2.46 2.978 1.043 2.641-.239A.946.946 0 0 1 6.7 3.411L7.267 0v3.114a.5.5 0 1 0 .993 0V0l.567 3.411a.938.938 0 0 1-.8 1zm-3.658 4.7l-.09.278h-.293l.237.172-.091.278.236-.172.236.172-.091-.279.237-.172h-.292l-.09-.278zm6.894 0l-.09.278h-.292l.236.172-.091.278.236-.172.236.172-.089-.279.237-.172h-.293l-.09-.278zM7.787 7.766v3.089l-.1.258q.482 0 .967.025l-.112-.266V8.898l.469 1.157.473 1.175q.411.071.823.169l-.069-.264V8.103l.1-.224s-.645-.175-.967-.24l.111.278v2.008c-.157-.4-.315-.807-.473-1.2s-.313-.794-.469-1.188q-.412-.023-.823-.021l.069.249zm-1.714.63v2.218c.172-.028.344-.051.516-.073l.172-.193v-.483l-.146-.168c-.181.135-.361.27-.541.41v-.745q.344-.263.688-.512v-.387L6.59 8.31a15.37 15.37 0 0 0-.516.083zm-.817-.5l.053.23v3.044l-.052.258.114-.023q.351-.072.7-.129.458-.067.916-.11c.172-.169.34-.338.511-.5V9.525l-.3-.239.3-.28v-.981c-.172-.152-.34-.3-.511-.448q-.459.054-.916.134c-.235.047-.469.1-.7.156l-.115.024z"/></svg>