<svg data-name="calendar (1)" xmlns="http://www.w3.org/2000/svg" width="85.02" height="78.753" viewBox="0 0 85.02 78.753"><path data-name="Path 50" d="M84.983 17.5a8.636 8.636 0 0 0-8.5-8.75H63.738V4.375a4.251 4.251 0 1 0-8.5 0V8.75H29.744V4.375a4.251 4.251 0 1 0-8.5 0V8.75H8.5A8.636 8.636 0 0 0 0 17.5V70a8.636 8.636 0 0 0 8.5 8.75s65.368-.06 67.987 0a8.165 8.165 0 0 0 6.276-2.613 8.029 8.029 0 0 0 2.222-5.689c.081-2.126-.002-52.948-.002-52.948zM8.5 70V17.5h12.746v4.375a4.251 4.251 0 1 0 8.5 0V17.5h25.493v4.375a4.251 4.251 0 1 0 8.5 0V17.5h12.746c.122 0 .083 52.276 0 52.5z" fill="#ff6301"/></svg>