<svg xmlns="http://www.w3.org/2000/svg" width="12.101" height="10.886" viewBox="0 0 12.101 10.886"><defs><style>.a{opacity:.72}.b{fill:#ff6301}</style></defs><g class="a"><path class="b" d="M12.1 2.419a1.211 1.211 0 0 0-1.21-1.21H9.072v-.6a.605.605 0 1 0-1.21 0v.6H4.233v-.6a.605.605 0 1 0-1.21 0v.6H1.21A1.211 1.211 0 0 0 0 2.419v7.257a1.211 1.211 0 0 0 1.21 1.21s9.3-.008 9.676 0a1.179 1.179 0 0 0 .893-.361 1.093 1.093 0 0 0 .316-.786c.012-.295.005-7.32.005-7.32zM1.21 9.676V2.419h1.814v.6a.605.605 0 0 0 1.21 0v-.6h3.629v.6a.605.605 0 0 0 1.21 0v-.6h1.814c.017 0 .012 7.226 0 7.257z"/></g></svg>