<svg xmlns="http://www.w3.org/2000/svg" width="14.489" height="14.489" viewBox="0 0 14.489 14.489"><defs><style>.a{fill:#fff}</style></defs><ellipse class="a" cx=".566" cy=".566" rx=".566" ry=".566" transform="translate(10.357 5.377)"/><path class="a" d="M12.225 1.132h-.736V.566a.566.566 0 0 0-1.132 0v.566H7.782V.566a.566.566 0 0 0-1.132 0v.566H4.1V.566a.566.566 0 0 0-1.132 0v.566h-.704A2.266 2.266 0 0 0 0 3.4v8.829a2.266 2.266 0 0 0 2.264 2.264h4.33a.566.566 0 1 0 0-1.132h-4.33a1.133 1.133 0 0 1-1.132-1.132V3.4a1.133 1.133 0 0 1 1.132-1.136h.707v.566a.566.566 0 0 0 1.132 0v-.566H6.65v.566a.566.566 0 0 0 1.132 0v-.566h2.575v.566a.566.566 0 0 0 1.132 0v-.566h.736A1.133 1.133 0 0 1 13.357 3.4v3.222a.566.566 0 0 0 1.132 0V3.4a2.266 2.266 0 0 0-2.264-2.268z"/><path class="a" d="M11.065 7.64a3.424 3.424 0 1 0 3.424 3.424 3.428 3.428 0 0 0-3.424-3.424zm0 5.716a2.292 2.292 0 1 1 2.292-2.292 2.295 2.295 0 0 1-2.292 2.292z"/><path class="a" d="M11.886 10.498h-.255v-.594a.566.566 0 0 0-1.132 0v1.16a.566.566 0 0 0 .566.566h.821a.566.566 0 1 0 0-1.132z"/><ellipse class="a" cx=".566" cy=".566" rx=".566" ry=".566" transform="translate(7.895 5.377)"/><ellipse class="a" cx=".566" cy=".566" rx=".566" ry=".566" transform="translate(5.433 7.839)"/><ellipse class="a" cx=".566" cy=".566" rx=".566" ry=".566" transform="translate(2.971 5.377)"/><ellipse class="a" cx=".566" cy=".566" rx=".566" ry=".566" transform="translate(2.971 7.839)"/><ellipse class="a" cx=".566" cy=".566" rx=".566" ry=".566" transform="translate(2.971 10.301)"/><ellipse class="a" cx=".566" cy=".566" rx=".566" ry=".566" transform="translate(5.433 10.301)"/><ellipse class="a" cx=".566" cy=".566" rx=".566" ry=".566" transform="translate(5.433 5.377)"/></svg>