<svg xmlns="http://www.w3.org/2000/svg" width="12.806" height="11.521" viewBox="0 0 12.806 11.521"><defs><style>.a{fill:#ff6301}</style></defs><path class="a" d="M12.8 2.56a1.281 1.281 0 0 0-1.28-1.28H9.6V.64a.64.64 0 1 0-1.28 0v.64H4.48V.64a.64.64 0 1 0-1.28 0v.64H1.28A1.281 1.281 0 0 0 0 2.56v7.68a1.281 1.281 0 0 0 1.28 1.28s9.846-.009 10.241 0a1.248 1.248 0 0 0 .945-.382 1.156 1.156 0 0 0 .335-.832c.012-.311-.001-7.746-.001-7.746zM1.28 10.241V2.56H3.2v.64a.64.64 0 0 0 1.28 0v-.64h3.84v.64a.64.64 0 0 0 1.28 0v-.64h1.92c.018 0 .012 7.648 0 7.68z"/></svg>