<svg xmlns="http://www.w3.org/2000/svg" width="75.683" height="75.683" viewBox="0 0 75.683 75.683"><g data-name="Group 2886"><g data-name="Group 2885"><g data-name="Group 2811"><circle data-name="Ellipse 139" cx="37.841" cy="37.841" r="37.841" fill="#6ac259"/></g><path data-name="Path 3644" d="M27.808 41.695a42.745 42.745 0 0 0 14.218 11.137 22.129 22.129 0 0 0 7.956 2.354c.192.008.376.017.568.017a6.589 6.589 0 0 0 5.112-2.191.182.182 0 0 0 .033-.042 21.512 21.512 0 0 1 1.611-1.67c.392-.376.793-.768 1.177-1.169a4.031 4.031 0 0 0-.017-6l-5.018-5.018a4.061 4.061 0 0 0-2.939-1.353 4.2 4.2 0 0 0-2.972 1.344l-2.989 2.989c-.276-.159-.559-.3-.827-.434a10.323 10.323 0 0 1-.918-.5 31.632 31.632 0 0 1-7.556-6.879 18.216 18.216 0 0 1-2.555-4.074 50.717 50.717 0 0 0 2.229-2.179c.25-.259.509-.518.768-.776a4.28 4.28 0 0 0 1.386-3.006 4.246 4.246 0 0 0-1.386-3.013l-2.488-2.488c-.292-.292-.568-.576-.852-.868a45.362 45.362 0 0 0-1.695-1.678 4.162 4.162 0 0 0-2.938-1.286 4.285 4.285 0 0 0-2.972 1.294l-3.123 3.123a6.416 6.416 0 0 0-1.912 4.107 15.452 15.452 0 0 0 1.161 6.676 38.857 38.857 0 0 0 6.938 11.583zm-6.062-18.083a4.416 4.416 0 0 1 1.328-2.839l3.106-3.106a2.248 2.248 0 0 1 1.536-.71 2.133 2.133 0 0 1 1.5.726c.559.518 1.085 1.06 1.653 1.636.284.292.576.584.868.885l2.488 2.488a2.267 2.267 0 0 1 .785 1.561 2.267 2.267 0 0 1-.785 1.561c-.259.259-.518.526-.776.785-.776.785-1.5 1.528-2.3 2.237l-.042.042a1.632 1.632 0 0 0-.417 1.853c.008.025.017.042.025.067a19.649 19.649 0 0 0 2.93 4.767 33.386 33.386 0 0 0 8.048 7.33 11.951 11.951 0 0 0 1.1.6 10.325 10.325 0 0 1 .918.5c.033.017.058.033.092.05a1.745 1.745 0 0 0 .81.209 1.771 1.771 0 0 0 1.244-.568l3.122-3.122a2.209 2.209 0 0 1 1.528-.743 2.1 2.1 0 0 1 1.478.743l5.034 5.026a2.013 2.013 0 0 1-.025 3.148c-.351.376-.718.735-1.11 1.11a24.043 24.043 0 0 0-1.745 1.812 4.584 4.584 0 0 1-3.577 1.523c-.142 0-.292-.008-.434-.017a20.1 20.1 0 0 1-7.2-2.154 40.608 40.608 0 0 1-13.534-10.6 37.193 37.193 0 0 1-6.6-10.979 13.466 13.466 0 0 1-1.048-5.821z" fill="#fff"/></g></g></svg>