<svg xmlns="http://www.w3.org/2000/svg" width="31.021" height="31.021" viewBox="0 0 31.021 31.021"><defs><style>.a{fill:#00a4ff}</style></defs><path class="a" d="M11.374 10.857a1.551 1.551 0 1 1-1.551-1.551 1.551 1.551 0 0 1 1.551 1.551zm11.375 0a1.551 1.551 0 1 1-1.551-1.551 1.551 1.551 0 0 1 1.551 1.551zm-1.308 9.822a1.033 1.033 0 0 1-.849-.442 6.186 6.186 0 0 0-10.163 0 1.036 1.036 0 0 1-1.7-1.184 8.255 8.255 0 0 1 13.556 0 1.034 1.034 0 0 1-.847 1.626zm0 0"/><path class="a" d="M31.021 15.51a15.51 15.51 0 1 0-15.51 15.51h9.306a1.034 1.034 0 1 0 0-2.068h-1.6a15.509 15.509 0 0 0 7.804-13.442zM15.51 28.953A13.442 13.442 0 1 1 28.953 15.51 13.457 13.457 0 0 1 15.51 28.953zm0 0"/></svg>