<svg xmlns="http://www.w3.org/2000/svg" width="16.156" height="16.156" viewBox="0 0 16.156 16.156"><defs><style>.a{fill:#c64c00}</style></defs><path class="a" d="M13.79 2.366A8.078 8.078 0 1 0 2.366 13.79 8.078 8.078 0 1 0 13.79 2.366zm-.649 10.774A7.16 7.16 0 0 1 3.016 3.016a7.16 7.16 0 1 1 10.125 10.125z"/><path class="a" d="M11.637 4.518a.458.458 0 0 0-.649 0l-2.91 2.91-2.91-2.91a.459.459 0 0 0-.649.649l2.91 2.91-2.91 2.91a.461.461 0 0 0 .323.785.448.448 0 0 0 .323-.136l2.91-2.91 2.91 2.91a.462.462 0 0 0 .323.136.442.442 0 0 0 .323-.136.458.458 0 0 0 0-.649l-2.9-2.91 2.91-2.91a.458.458 0 0 0-.004-.649z"/></svg>