<svg xmlns="http://www.w3.org/2000/svg" width="14.726" height="14.733" viewBox="0 0 14.726 14.733"><defs><style>.a{fill:#fff}</style></defs><path class="a" d="M12.57 2.159a7.364 7.364 0 0 0-10.9 9.878 2.764 2.764 0 0 1-1.16 1.342.687.687 0 0 0 .2 1.3 3.5 3.5 0 0 0 .521.04 4.763 4.763 0 0 0 2.647-.858 7.367 7.367 0 0 0 8.7-11.7zm-.587 9.825A6.535 6.535 0 0 1 4.056 13a.415.415 0 0 0-.466.028 3.966 3.966 0 0 1-2.311.848 4.192 4.192 0 0 0 1.262-1.743.419.419 0 0 0-.071-.444 6.532 6.532 0 1 1 9.51.3z"/><path class="a" d="M10.447 4.936H4.278a.416.416 0 0 0 0 .833h6.17a.416.416 0 1 0 0-.833zm0 2.014H4.278a.416.416 0 0 0 0 .833h6.17a.416.416 0 1 0 0-.833zm0 2.014H4.278a.416.416 0 1 0 0 .833h6.17a.416.416 0 1 0 0-.833z"/></svg>