<svg xmlns="http://www.w3.org/2000/svg" width="6.989" height="7.163" viewBox="0 0 6.989 7.163"><defs><style>.a{fill:#da2f47}.b{fill:#77b255}</style></defs><path class="a" d="M.65 5.694a3.3 3.3 0 0 0 2.8-1.237 4.66 4.66 0 0 0 1.04-2.912c0-.208 2.353-.636 2.288 1.04a4.464 4.464 0 0 1-4.143 4.559 3.374 3.374 0 0 1-2.369-.488.522.522 0 0 1 .381-.962"/><path class="b" d="M4.248 1.671a1.273 1.273 0 0 1 1.491-.615c.884.2 1.251.618 1.251 1.38s-.748.1-.852-.132-.537.468-.916-.266c-.128-.248-1.136.2-.974-.367"/><path class="b" d="M5.266.2c.237.241.631.568.459 1.1s.266.518.374.2a1.774 1.774 0 0 0-.09-1.317c-.231-.308-.922-.159-.742.023"/></svg>