<svg xmlns="http://www.w3.org/2000/svg" width="52.255" height="62.708" viewBox="0 0 52.255 62.708"><defs><style>.a{fill:#ea5607}</style></defs><path class="a" d="M51.776 44.711L23.035 21.195a1.307 1.307 0 0 0-2.132 1.014v39.192a1.312 1.312 0 0 0 .928 1.252 1.355 1.355 0 0 0 .379.055 1.307 1.307 0 0 0 1.087-.583l10.065-15.094h17.589a1.309 1.309 0 0 0 .826-2.32zm-19.115-.293a1.307 1.307 0 0 0-1.087.58l-8.058 12.087V24.966l23.777 19.452zM22.209 0a1.307 1.307 0 0 0-1.306 1.306v10.452a1.306 1.306 0 1 0 2.613 0V1.306A1.307 1.307 0 0 0 22.209 0zM11.758 20.903H1.306a1.306 1.306 0 1 0 0 2.613h10.452a1.306 1.306 0 1 0 0-2.613zm31.354 0H32.66a1.306 1.306 0 1 0 0 2.613h10.451a1.306 1.306 0 1 0 0-2.613zm-27.37-7.008L8.35 6.506a1.306 1.306 0 0 0-1.847 1.847l7.392 7.389a1.312 1.312 0 0 0 .925.382 1.291 1.291 0 0 0 .922-.382 1.307 1.307 0 0 0 0-1.847zm0 14.783a1.307 1.307 0 0 0-1.847 0l-7.392 7.389a1.305 1.305 0 0 0 .925 2.229 1.294 1.294 0 0 0 .922-.384l7.392-7.386a1.308 1.308 0 0 0 0-1.848zm22.17-22.172a1.307 1.307 0 0 0-1.847 0l-7.392 7.389a1.305 1.305 0 0 0 .925 2.229 1.291 1.291 0 0 0 .922-.382l7.392-7.389a1.307 1.307 0 0 0 0-1.847z"/></svg>