<svg xmlns="http://www.w3.org/2000/svg" width="7.206" height="7.215" viewBox="0 0 7.206 7.215"><defs><style>.a{fill:#51af54}</style></defs><path class="a" d="M.846 3.878l.277 2.22v.888a.225.225 0 0 0 .225.225h4.509a.225.225 0 0 0 .225-.225v-.888l.279-2.22a1.578 1.578 0 0 0-.729-2.98 1.529 1.529 0 0 0-.32.034 2.029 2.029 0 0 0-3.418 0 1.529 1.529 0 0 0-.32-.034 1.578 1.578 0 0 0-.728 2.976zm4.787 2.886H1.574v-.451h4.058zm.027-.9h-.9l.2-1.321a.227.227 0 0 0-.449-.065l-.2 1.387H2.897l-.2-1.384a.228.228 0 1 0-.451.063l.192 1.321h-.9l-.225-1.826a1.547 1.547 0 0 0 1.2-.293 2.029 2.029 0 0 0 2.169 0 1.547 1.547 0 0 0 1.2.293zM1.574 1.352a1.159 1.159 0 0 1 .358.059.225.225 0 0 0 .271-.108 1.578 1.578 0 0 1 2.8 0 .225.225 0 0 0 .271.108 1.159 1.159 0 0 1 .358-.059 1.127 1.127 0 1 1 0 2.255 1.109 1.109 0 0 1-.579-.165.216.216 0 0 0-.322-.286 1.578 1.578 0 0 1-2.232 0 .224.224 0 0 0-.334.3 1.109 1.109 0 0 1-.591.153 1.127 1.127 0 1 1 0-2.255z"/></svg>