<svg xmlns="http://www.w3.org/2000/svg" width="59.908" height="59.905" viewBox="0 0 59.908 59.905"><defs><style>.a{fill:#ea5607}</style></defs><path class="a" d="M58.317 20.558L39.347 1.589a5.45 5.45 0 0 0-7.691 0L1.588 31.656a5.45 5.45 0 0 0 0 7.691l2.339 2.342 15.722 15.72h-2.176a1.25 1.25 0 0 0 0 2.5h24.96a1.25 1.25 0 1 0 0-2.5H29.157l29.16-29.16a5.444 5.444 0 0 0 0-7.691zm-1.765 5.926L26.483 56.552a2.921 2.921 0 0 1-2.076.856H24.4a2.92 2.92 0 0 1-2.075-.856L6.575 40.804l28.877-28.877a1.248 1.248 0 1 0-1.765-1.765L4.81 39.04l-1.457-1.458a2.954 2.954 0 0 1 0-4.161L33.422 3.353a2.955 2.955 0 0 1 4.161 0l6.752 6.752-28.878 28.877a1.248 1.248 0 0 0 1.765 1.765L46.1 11.869l10.452 10.453a2.946 2.946 0 0 1 0 4.161z"/><path class="a" d="M30.75 36.044a1.248 1.248 0 0 0-1.765 0l-9.821 9.821a1.248 1.248 0 1 0 1.765 1.765l9.821-9.821a1.248 1.248 0 0 0 0-1.765zm-4.028 9.323l-4.028 4.028a1.248 1.248 0 0 0 1.765 1.765l4.028-4.028a1.248 1.248 0 0 0-1.765-1.765zm3.707-3.706l-.529.529a1.248 1.248 0 1 0 1.765 1.765l.529-.529a1.248 1.248 0 0 0-1.765-1.765zm17.202-22.497a1.248 1.248 0 0 0-1.765 0l-5.3 5.3a1.248 1.248 0 0 0 0 1.765l3.53 3.53a1.248 1.248 0 0 0 1.765 0l5.295-5.295a1.248 1.248 0 0 0 0-1.765zm-2.648 7.942l-1.765-1.765 3.53-3.53 1.765 1.765zM37.482 9.381a1.244 1.244 0 0 0 .883-.366l.529-.53a1.248 1.248 0 1 0-1.765-1.765l-.529.53a1.248 1.248 0 0 0 .883 2.13zM12.545 41.896l-.529.529a1.248 1.248 0 0 0 1.765 1.765l.529-.529a1.248 1.248 0 1 0-1.765-1.765z"/></svg>