<svg xmlns="http://www.w3.org/2000/svg" width="81.092" height="81.092" viewBox="0 0 81.092 81.092"><g data-name="Group 2810" transform="translate(79.349 -13225.651)"><rect data-name="Rectangle 923" width="57.341" height="57.341" rx="2" transform="rotate(-45 15974.042 6728.881)" fill="#10a3ff"/><path data-name="Path 3643" d="M-27.327 13263.343a1.693 1.693 0 0 0 2.507 0l5.432-5.8a1.986 1.986 0 0 0 0-2.678l-5.432-5.8a1.693 1.693 0 0 0-2.507 0 1.986 1.986 0 0 0 0 2.678l2.406 2.571h-20.3a1.837 1.837 0 0 0-1.773 1.894v24.939a1.777 1.777 0 1 0 3.546 0v-23.053h18.528l-2.406 2.571a1.986 1.986 0 0 0-.001 2.678z" fill="#fff"/></g></svg>