<svg xmlns="http://www.w3.org/2000/svg" width="15.176" height="15.177" viewBox="0 0 15.176 15.177"><defs><style>.a{fill:#ff6301}.b{fill:#fafafa}</style></defs><path class="a" d="M14.479 7.589l.666-1.737a.475.475 0 0 0-.144-.539l-1.444-1.17-.292-1.837a.474.474 0 0 0-.395-.394l-1.837-.292L9.864.175a.475.475 0 0 0-.538-.144L7.59.7 5.852.032a.473.473 0 0 0-.538.144l-1.17 1.445-1.837.292a.475.475 0 0 0-.394.394l-.292 1.837-1.445 1.17a.475.475 0 0 0-.144.538l.666 1.737-.666 1.736a.473.473 0 0 0 .144.538l1.445 1.169.292 1.837a.474.474 0 0 0 .394.395l1.837.292L5.314 15a.472.472 0 0 0 .539.144l1.737-.665 1.737.666A.475.475 0 0 0 9.864 15l1.169-1.444 1.837-.292a.475.475 0 0 0 .395-.395l.292-1.837 1.444-1.169a.473.473 0 0 0 .144-.538z"/><path class="b" d="M6.166 6.64a1.423 1.423 0 1 1 1.423-1.423A1.424 1.424 0 0 1 6.166 6.64zm0-1.9a.474.474 0 1 0 .474.474.474.474 0 0 0-.474-.471zm2.845 6.642a1.423 1.423 0 1 1 1.423-1.423 1.424 1.424 0 0 1-1.423 1.423zm0-1.9a.474.474 0 1 0 .474.474.476.476 0 0 0-.474-.471zm-3.794 1.901a.474.474 0 0 1-.385-.75l4.742-6.639a.474.474 0 0 1 .772.551l-4.742 6.639a.476.476 0 0 1-.387.199z"/></svg>