<svg xmlns="http://www.w3.org/2000/svg" width="20.061" height="18.591" viewBox="0 0 20.061 18.591"><defs><style>.a{fill:#ea5607}</style></defs><path class="a" d="M19.485 9.063a.572.572 0 0 0-.575.575v5.228a2.579 2.579 0 0 1-2.576 2.576H3.725a2.579 2.579 0 0 1-2.576-2.576V9.553a.575.575 0 0 0-1.149 0v5.313a3.729 3.729 0 0 0 3.725 3.725h12.61a3.729 3.729 0 0 0 3.725-3.725V9.638a.575.575 0 0 0-.575-.575z"/><path class="a" d="M9.625 14.028a.578.578 0 0 0 .4.17.561.561 0 0 0 .4-.17l3.653-3.653a.575.575 0 0 0-.813-.813l-2.669 2.674V.575a.575.575 0 0 0-1.149 0v11.66L6.773 9.561a.575.575 0 0 0-.813.813z"/></svg>