<svg xmlns="http://www.w3.org/2000/svg" width="4.225" height="4.226" viewBox="0 0 4.225 4.226"><defs><style>.a{fill:#c64c00}</style></defs><path class="a" d="M3.466.207a.582.582 0 0 0-.817.1L.641 2.88a.13.13 0 0 0-.026.06L.443 4.066a.13.13 0 0 0 .177.138l1.05-.431a.13.13 0 0 0 .053-.04l2.012-2.575a.582.582 0 0 0-.1-.817zM.931 2.928L2.575.824l.679.53L1.609 3.46zm-.093.253l.542.424-.646.267zM3.532.998l-.12.154L2.733.62l.12-.153a.323.323 0 0 1 .453-.055l.169.127a.324.324 0 0 1 .056.459zm0 0"/></svg>