<svg xmlns="http://www.w3.org/2000/svg" width="16.735" height="16.735" viewBox="0 0 16.735 16.735"><defs><style>.a{fill:#fbbb00}.b{fill:#518ef8}.c{fill:#28b446}.d{fill:#f14336}</style></defs><path class="a" d="M3.709 10.113l-.583 2.175L1 12.333a8.382 8.382 0 0 1-.062-7.814l1.9.348.83 1.884a4.994 4.994 0 0 0 .047 3.362z"/><path class="b" d="M16.589 6.804a8.365 8.365 0 0 1-2.983 8.089l-2.388-.122-.338-2.109a4.987 4.987 0 0 0 2.146-2.547H8.552v-3.31h8.038z"/><path class="c" d="M13.606 14.892a8.37 8.37 0 0 1-12.609-2.56l2.712-2.22a4.977 4.977 0 0 0 7.171 2.548z"/><path class="d" d="M13.712 1.926l-2.714 2.22a4.976 4.976 0 0 0-7.336 2.605L.936 4.519a8.369 8.369 0 0 1 12.776-2.593z"/></svg>