<svg xmlns="http://www.w3.org/2000/svg" width="16.684" height="16.684" viewBox="0 0 16.684 16.684"><defs><style>.a{fill:url(#a)}.b{fill:url(#b)}.c{fill:url(#c)}</style><linearGradient id="a" x1=".084" y1=".916" x2=".916" y2=".084" gradientUnits="objectBoundingBox"><stop offset="0" stop-color="#ffd600"/><stop offset=".5" stop-color="#ff0100"/><stop offset="1" stop-color="#d800b9"/></linearGradient><linearGradient id="b" x1=".146" y1=".854" x2=".854" y2=".146" gradientUnits="objectBoundingBox"><stop offset="0" stop-color="#ff6400"/><stop offset=".5" stop-color="#ff0100"/><stop offset="1" stop-color="#fd0056"/></linearGradient><linearGradient id="c" x1=".146" y1=".854" x2=".854" y2=".146" gradientUnits="objectBoundingBox"><stop offset="0" stop-color="#f30072"/><stop offset="1" stop-color="#e50097"/></linearGradient></defs><path class="a" d="M16.634 4.9a6.124 6.124 0 0 0-.388-2.025 4.088 4.088 0 0 0-.962-1.475 4.09 4.09 0 0 0-1.478-.962A6.123 6.123 0 0 0 11.781.05C10.892.01 10.608 0 8.342 0S5.792.01 4.9.05a6.125 6.125 0 0 0-2.022.388A4.088 4.088 0 0 0 1.4 1.4a4.089 4.089 0 0 0-.962 1.478A6.124 6.124 0 0 0 .05 4.9C.01 5.792 0 6.076 0 8.342s.01 2.55.05 3.439a6.123 6.123 0 0 0 .388 2.025 4.088 4.088 0 0 0 .962 1.478 4.087 4.087 0 0 0 1.478.962 6.121 6.121 0 0 0 2.025.388c.89.041 1.174.05 3.439.05s2.55-.01 3.439-.05a6.122 6.122 0 0 0 2.025-.388 4.265 4.265 0 0 0 2.44-2.44 6.123 6.123 0 0 0 .388-2.025c.04-.89.05-1.174.05-3.439s-.01-2.55-.05-3.442zm-1.5 6.81a4.615 4.615 0 0 1-.287 1.549 2.762 2.762 0 0 1-1.583 1.583 4.616 4.616 0 0 1-1.549.287c-.879.04-1.143.049-3.371.049s-2.491-.008-3.371-.049a4.617 4.617 0 0 1-1.549-.287 2.585 2.585 0 0 1-.959-.624 2.584 2.584 0 0 1-.624-.959 4.616 4.616 0 0 1-.287-1.549c-.04-.88-.049-1.143-.049-3.371s.009-2.491.049-3.371a4.619 4.619 0 0 1 .287-1.549 2.586 2.586 0 0 1 .624-.959 2.583 2.583 0 0 1 .959-.624 4.615 4.615 0 0 1 1.549-.287c.88-.04 1.143-.049 3.371-.049 2.227 0 2.491.009 3.371.049a4.616 4.616 0 0 1 1.549.287 2.587 2.587 0 0 1 .959.624 2.583 2.583 0 0 1 .624.959 4.611 4.611 0 0 1 .287 1.549c.04.88.049 1.143.049 3.371s-.01 2.494-.051 3.374zm0 0"/><path class="b" d="M8.342 4.058a4.284 4.284 0 1 0 4.284 4.284 4.284 4.284 0 0 0-4.284-4.284zm0 7.064a2.781 2.781 0 1 1 2.781-2.781 2.781 2.781 0 0 1-2.781 2.778zm0 0"/><path class="c" d="M13.796 3.889a1 1 0 1 1-1-1 1 1 0 0 1 1 1zm0 0"/></svg>