<svg xmlns="http://www.w3.org/2000/svg" width="16.76" height="16.76" viewBox="0 0 16.76 16.76"><g fill="#d19772"><path data-name="Path 17" d="M16.709 4.925a6.152 6.152 0 0 0-.39-2.034 4.107 4.107 0 0 0-.967-1.484A4.108 4.108 0 0 0 13.869.44a6.151 6.151 0 0 0-2.034-.389C10.941.01 10.656 0 8.38 0S5.819.01 4.925.05a6.153 6.153 0 0 0-2.034.39 4.107 4.107 0 0 0-1.484.967A4.108 4.108 0 0 0 .44 2.891a6.152 6.152 0 0 0-.389 2.034C.01 5.819 0 6.1 0 8.38s.01 2.561.051 3.455a6.151 6.151 0 0 0 .389 2.034 4.107 4.107 0 0 0 .967 1.484 4.106 4.106 0 0 0 1.484.967 6.149 6.149 0 0 0 2.034.39c.894.041 1.179.05 3.455.05s2.561-.01 3.455-.05a6.15 6.15 0 0 0 2.034-.39 4.284 4.284 0 0 0 2.451-2.451 6.15 6.15 0 0 0 .39-2.034c.041-.894.05-1.179.05-3.455s-.01-2.561-.051-3.455zM15.2 11.766a4.636 4.636 0 0 1-.288 1.556 2.775 2.775 0 0 1-1.59 1.59 4.636 4.636 0 0 1-1.556.288c-.883.04-1.149.049-3.386.049s-2.5-.008-3.386-.049a4.638 4.638 0 0 1-1.556-.288 2.6 2.6 0 0 1-.963-.627 2.6 2.6 0 0 1-.627-.963 4.636 4.636 0 0 1-.288-1.556c-.04-.884-.049-1.149-.049-3.386s.009-2.5.049-3.386a4.64 4.64 0 0 1 .288-1.556 2.6 2.6 0 0 1 .627-.964 2.6 2.6 0 0 1 .964-.627 4.636 4.636 0 0 1 1.556-.289c.884-.04 1.149-.049 3.386-.049 2.238 0 2.5.009 3.386.049a4.637 4.637 0 0 1 1.556.288 2.6 2.6 0 0 1 .963.627 2.6 2.6 0 0 1 .627.964 4.632 4.632 0 0 1 .287 1.557c.04.884.049 1.149.049 3.386s-.008 2.503-.049 3.386zm0 0"/><path data-name="Path 18" d="M8.38 4.077a4.3 4.3 0 1 0 4.3 4.3 4.3 4.3 0 0 0-4.3-4.3zm0 7.1a2.793 2.793 0 1 1 2.793-2.793 2.793 2.793 0 0 1-2.793 2.79zm0 0"/><path data-name="Path 19" d="M13.859 3.907a1.006 1.006 0 1 1-1.006-1.006 1.006 1.006 0 0 1 1.006 1.006zm0 0"/></g></svg>