<svg xmlns="http://www.w3.org/2000/svg" width="33.026" height="33.026" viewBox="0 0 33.026 33.026"><g data-name="Group 2889" opacity=".996"><g data-name="Layer 51"><path data-name="Path 3551" d="M23.43 10.132v-.06a.538.538 0 0 0 0-.057l-.042-.063a.37.37 0 0 0-.03-.06v-.033l-.041-.057a.424.424 0 0 0-.036-.039.158.158 0 0 0-.042-.036l-.051-.042-.069-.036-.057-.03-.057-.018-.054-.015h-.236l-.057.015a.379.379 0 0 0-.054.018l-.06.03-.03.015-7.794 4.86a.262.262 0 0 0-.045.036l-.039.03a.337.337 0 0 0-.03.039.262.262 0 0 0-.036.045l-4.893 7.845a.038.038 0 0 1-.015.03.554.554 0 0 0-.03.06l-.018.054a.4.4 0 0 0-.015.057v.23a.536.536 0 0 0 .015.057l.018.051a.37.37 0 0 0 .03.06l.015.033a.519.519 0 0 0 .089.11.414.414 0 0 0 .081.063h.015a.6.6 0 0 0 .1.045l.048.018a.8.8 0 0 0 .14.021h.027a.722.722 0 0 0 .14-.021.226.226 0 0 0 .048-.018.617.617 0 0 0 .1-.045l7.833-4.83a.3.3 0 0 0 .051-.036l.027-.021a.325.325 0 0 0 .03-.033.37.37 0 0 0 .042-.054l4.896-7.848v-.03a.554.554 0 0 0 .03-.06l.018-.054a.4.4 0 0 0 0-.057v-.113c0-.018.038-.038.038-.056zm-8.283 5.859l1.887 1.887-4.994 3.107zm2.727 1.043l-1.887-1.887 4.994-3.107z" fill="#fff"/></g><path data-name="Path 3554" d="M16.513 0a16.513 16.513 0 1 0 16.513 16.513A16.513 16.513 0 0 0 16.513 0zm0 31.525a15.012 15.012 0 1 1 15.012-15.012 15.012 15.012 0 0 1-15.012 15.012z" fill="#fff"/></g></svg>