<svg data-name="Group 2888" xmlns="http://www.w3.org/2000/svg" width="33.026" height="33.026" viewBox="0 0 33.026 33.026"><g data-name="Group 51" fill="#fff"><path data-name="Rectangle 508" d="M5.965 20.728h21.447v.944H5.965z"/><path data-name="Path 29" d="M17.704 9.139a.971.971 0 1 1-.971-.97.971.971 0 0 1 .971.97z"/><path data-name="Path 30" d="M16.688 10.083c-10.461 0-8.888 9.753-8.888 9.753h17.882s1.468-9.753-8.994-9.753zm-6.267 8.626h-1.73c0-7.433 5.938-8.141 8.043-8.141-5.604-.002-6.312 8.141-6.312 8.141z"/></g><path data-name="Path 3553" d="M16.513 0a16.513 16.513 0 1 0 16.513 16.513A16.513 16.513 0 0 0 16.513 0zm0 31.525a15.012 15.012 0 1 1 15.012-15.012 15.012 15.012 0 0 1-15.012 15.012z" fill="#fff"/></svg>