<svg xmlns="http://www.w3.org/2000/svg" width="35.623" height="35.623" viewBox="0 0 35.623 35.623"><defs><style>.a{fill:#e49871}</style></defs><path class="a" d="M9.672 25.129h18.07a2.831 2.831 0 0 0 2.828-2.83v-4.1H9.67zm19.01-2.83a.942.942 0 0 1-.941.943h-2.255V20.09h3.2v2.209zM11.558 20.09h12.04v3.152h-12.04zm-4.303-1.343h1.887v5.837H7.255zm1.333-7.361a4.03 4.03 0 0 0-1.369 3.672 3.708 3.708 0 0 0 2.584 2.7l.645-1.773a1.954 1.954 0 0 1-1.378-1.291 2.181 2.181 0 0 1 .794-1.913c.987-.906 1.686-1.651 1.686-2.986A3.457 3.457 0 0 0 8.366 6.27v1.887a1.6 1.6 0 0 1 1.3 1.638c-.003.439-.091.69-1.078 1.591z"/><path class="a" d="M13.457 9.796c0 .442-.093.694-1.075 1.594a4.036 4.036 0 0 0-1.369 3.673 3.71 3.71 0 0 0 2.585 2.7l.645-1.773a1.955 1.955 0 0 1-1.378-1.29 2.185 2.185 0 0 1 .792-1.914c.987-.906 1.687-1.651 1.687-2.986a3.458 3.458 0 0 0-3.185-3.525v1.887a1.6 1.6 0 0 1 1.298 1.634z"/><path class="a" d="M17.816 35.622A17.812 17.812 0 1 0 0 17.812a17.832 17.832 0 0 0 17.816 17.81zm0-33.736A15.924 15.924 0 1 1 1.887 17.812 15.943 15.943 0 0 1 17.816 1.887z"/></svg>