<svg xmlns="http://www.w3.org/2000/svg" width="18.601" height="18.601" viewBox="0 0 18.601 18.601"><defs><style>.a{fill:#02050a}</style></defs><path class="a" d="M9.301 0a9.3 9.3 0 1 0 9.3 9.3 9.311 9.311 0 0 0-9.3-9.3zm0 17.326A8.026 8.026 0 1 1 17.327 9.3a8.035 8.035 0 0 1-8.026 8.026z"/><path class="a" d="M9.475 9.829a2.886 2.886 0 1 0-2.881-2.886 2.889 2.889 0 0 0 2.881 2.886zm0-4.5a1.611 1.611 0 1 1-1.611 1.612 1.613 1.613 0 0 1 1.611-1.61z"/><path class="a" d="M14.983 12.274a3.6 3.6 0 0 0-3.362-2.445.635.635 0 0 0-.421.124 2.856 2.856 0 0 1-3.454 0 .64.64 0 0 0-.42-.124 3.6 3.6 0 0 0-3.37 2.472.638.638 0 1 0 1.191.455 2.3 2.3 0 0 1 2.046-1.634 4.122 4.122 0 0 0 4.561 0 2.3 2.3 0 0 1 2.04 1.614.638.638 0 0 0 1.189-.461z"/></svg>