<svg xmlns="http://www.w3.org/2000/svg" width="39.596" height="34.388" viewBox="0 0 39.596 34.388"><defs><style>.a{fill:#e49871}</style></defs><path class="a" d="M33.22 0a6.352 6.352 0 0 0-4.913 2.315 17.067 17.067 0 0 0-17.019 0 6.373 6.373 0 1 0-7.846 9.716 17.166 17.166 0 1 0 33.529 5.185 17.023 17.023 0 0 0-.817-5.185A6.372 6.372 0 0 0 33.22 0zm1.727 10.917l-.7.265.254.7a15.66 15.66 0 1 1-29.414 0l.254-.7-.7-.265a4.86 4.86 0 1 1 5.8-7.185l.406.624.63-.4a15.561 15.561 0 0 1 16.616 0l.63.4.406-.624a4.86 4.86 0 1 1 5.8 7.186z"/><ellipse class="a" cx="2.458" cy="2.458" rx="2.458" ry="2.458" transform="translate(10.346 15.262)"/><ellipse class="a" cx="2.458" cy="2.458" rx="2.458" ry="2.458" transform="translate(24.334 15.262)"/><path class="a" d="M21.621 21.978h-3.646a2.406 2.406 0 0 0 0 4.811h3.646a2.406 2.406 0 0 0 0-4.811zM20.554 7.745v-6.1h-1.513v6.1h1.513z"/></svg>