<svg xmlns="http://www.w3.org/2000/svg" width="30.477" height="37.012" viewBox="0 0 30.477 37.012"><defs><style>.a{fill:#e49871}</style></defs><path class="a" d="M25.316 28.235a.816.816 0 0 1-.547-.21l-18.774-16.9a2.491 2.491 0 0 0-3.333 3.7.82.82 0 0 1-1.093 1.224 4.127 4.127 0 1 1 5.522-6.135l18.774 16.9a.818.818 0 0 1-.548 1.426zm1.213 8.777a3.949 3.949 0 1 1 3.948-3.947 3.953 3.953 0 0 1-3.948 3.947zm0-6.261a2.312 2.312 0 1 0 2.312 2.314 2.315 2.315 0 0 0-2.312-2.315z"/><path class="a" d="M8.644 37.012a8.645 8.645 0 1 1 8.645-8.644 8.654 8.654 0 0 1-8.645 8.644zm0-15.654a7.008 7.008 0 1 0 7.009 7.009 7.016 7.016 0 0 0-7.009-7.008zm7.005-10.643a5.357 5.357 0 1 1 5.357-5.357 5.363 5.363 0 0 1-5.357 5.357zm0-9.079a3.721 3.721 0 1 0 3.722 3.721 3.725 3.725 0 0 0-3.722-3.721zm9.028 19.844a4.629 4.629 0 0 1-4.533-3.6l-.029-.226a.9.9 0 0 0-.02-.128 4.769 4.769 0 0 0-4.516-3.785 4.569 4.569 0 0 0-3.542 1.676.818.818 0 1 1-1.264-1.039 6.2 6.2 0 0 1 4.807-2.273 6.434 6.434 0 0 1 6.117 5.083 2.208 2.208 0 0 1 .049.313l.006.056a3 3 0 0 0 2.926 2.284.818.818 0 1 1 0 1.635z"/></svg>