<svg xmlns="http://www.w3.org/2000/svg" width="33.026" height="33.026" viewBox="0 0 33.026 33.026"><g data-name="Group 2890" opacity=".996" fill="#fff"><path data-name="Path 3556" d="M22.211 11.46l-10.86 8.39a.783.783 0 0 0 .956 1.239l10.861-8.39a.783.783 0 0 0-.956-1.239zm-7.255 3.039a2.739 2.739 0 1 0-1.936-.8 2.722 2.722 0 0 0 1.936.8zm-.83-3.569a1.174 1.174 0 0 1 1.66 1.66 1.2 1.2 0 0 1-1.66 0 1.175 1.175 0 0 1 0-1.662zm5.437 7.125a2.739 2.739 0 1 0 1.936.8 2.722 2.722 0 0 0-1.936-.803zm.83 3.569a1.2 1.2 0 0 1-1.66 0 1.174 1.174 0 1 1 1.66 0z"/><path data-name="Path 3557" d="M16.513 0a16.513 16.513 0 1 0 16.513 16.513A16.513 16.513 0 0 0 16.513 0zm0 31.525a15.012 15.012 0 1 1 15.012-15.012 15.012 15.012 0 0 1-15.012 15.012z"/></g></svg>