<svg xmlns="http://www.w3.org/2000/svg" width="36.342" height="29.01" viewBox="0 0 36.342 29.01"><defs><style>.a{fill:#e49871}</style></defs><path class="a" d="M36.342 5.998a1.692 1.692 0 0 0-1.2-1.626l-.017-.005L20.35.328a7.411 7.411 0 0 0-4.359 0L1.218 4.367l-.017.005A1.692 1.692 0 0 0 0 5.998a.554.554 0 0 1 0 .3v.568a1.705 1.705 0 0 0 1.7 1.7h7.95a1.7 1.7 0 0 0 1.136-.435 1.7 1.7 0 0 0 1.136.435H17.6v10.789h-5.675a.568.568 0 0 0 0 1.136h4.543v.568a1.706 1.706 0 0 0 1.132 1.607v2.994a2.844 2.844 0 0 0-2.271 2.782.568.568 0 1 0 1.136 0 1.706 1.706 0 0 1 1.135-1.606v1.606a.568.568 0 1 0 1.136 0v-1.606a1.706 1.706 0 0 1 1.136 1.606.568.568 0 1 0 1.136 0 2.844 2.844 0 0 0-2.271-2.782v-2.994a1.706 1.706 0 0 0 1.136-1.606v-.568h4.543a.568.568 0 0 0 0-1.136h-5.677V8.568h5.678a1.7 1.7 0 0 0 1.136-.435 1.7 1.7 0 0 0 1.136.435h7.95a1.705 1.705 0 0 0 1.7-1.7V6.3a.554.554 0 0 1 0-.3zm-17.6 15.063a.568.568 0 1 1-1.136 0v-.568h1.136zM10.625 4.593H4.7L14.88 1.81a135.225 135.225 0 0 1-4.255 2.783zm6.588-3.08a1.526 1.526 0 0 1 1.918 0l.037.027 4.526 3.05H12.738c1.435-.923 3.441-2.25 4.475-3.077zm-7.56 5.919H1.7a.569.569 0 0 1-.568-.568v-.568a.554.554 0 0 1 0-.3.565.565 0 0 1 .068-.269h9.017v1.136a.569.569 0 0 1-.564.569zm14.764 0H11.925a.569.569 0 0 1-.568-.568V5.729h13.628v1.136a.569.569 0 0 1-.568.567zm10.789-.568a.569.569 0 0 1-.568.568h-7.95a.569.569 0 0 1-.568-.568V5.729h.568a.568.568 0 1 0 0-1.136h-.962l-4.04-2.723 9.958 2.723H28.96a.568.568 0 1 0 0 1.136h6.178a.564.564 0 0 1 .068.269.554.554 0 0 1 0 .3z"/><path class="a" d="M11.357 24.988v-2.65a.711.711 0 0 0-.71-.71H5.11v-3.975a1.705 1.705 0 0 0-1.7-1.7.568.568 0 1 0 0 1.136.568.568 0 0 1 .568.568v7.335l-.56 3.361a.568.568 0 0 0 .467.653.567.567 0 0 0 .653-.467l.489-2.933h5.284l.489 2.933a.568.568 0 1 0 1.12-.187zm-1.136-.521H5.11v-1.7h5.111zm22.713-8.517a1.705 1.705 0 0 0-1.7 1.7v3.975h-5.536a.711.711 0 0 0-.71.71v2.65l-.56 3.361a.568.568 0 0 0 .467.653.574.574 0 0 0 .094.008.568.568 0 0 0 .559-.475l.489-2.933h5.281l.489 2.933a.568.568 0 1 0 1.12-.187l-.56-3.361v-7.335a.568.568 0 0 1 .568-.568.568.568 0 1 0 0-1.136zm-6.814 6.814h5.111v1.7h-5.113z"/></svg>