<svg xmlns="http://www.w3.org/2000/svg" width="38.693" height="29.02" viewBox="0 0 38.693 29.02"><defs><style>.a{fill:#e49871}</style></defs><path class="a" d="M38.048 11.608h-4.514V9.825l1.043-2.087h1.536v-1.29h-1.328a5.81 5.81 0 0 0-5.766-5.159V.644a.645.645 0 0 0-1.29 0v.645a5.81 5.81 0 0 0-5.766 5.159h-1.327v1.29h1.536l1.043 2.087v1.782h-7.738V9.825l1.043-2.087h1.536v-1.29h-1.327a5.81 5.81 0 0 0-5.766-5.159V.644a.645.645 0 0 0-1.29 0v.645a5.81 5.81 0 0 0-5.766 5.159H2.58v1.29h1.536l1.043 2.087v1.782H.645a.645.645 0 0 0-.645.646V26.44a.645.645 0 0 0 .645.645 2.652 2.652 0 0 1 1.926.82 3.943 3.943 0 0 0 5.5 0 2.672 2.672 0 0 1 3.851 0 3.944 3.944 0 0 0 5.5 0 2.675 2.675 0 0 1 3.853 0 3.946 3.946 0 0 0 5.5 0 2.675 2.675 0 0 1 3.853 0 3.951 3.951 0 0 0 5.5 0 2.656 2.656 0 0 1 1.928-.82.645.645 0 0 0 .645-.645V12.253a.645.645 0 0 0-.653-.645zM23.614 7.739h9.521l-.645 1.29h-8.231zM27.73 2.58h1.29a4.521 4.521 0 0 1 4.468 3.869H23.261A4.521 4.521 0 0 1 27.73 2.58zm-3.224 7.739h7.739v1.29h-7.74zM5.558 7.739h9.521l-.645 1.29H6.2zM9.674 2.58h1.29a4.521 4.521 0 0 1 4.468 3.869H5.2A4.521 4.521 0 0 1 9.673 2.58zm-3.225 7.738h7.739v1.29H6.449zM37.4 25.843a4.094 4.094 0 0 0-2.1 1.067 3.362 3.362 0 0 1-1.119.7v-5.684h-1.29v5.763a2.89 2.89 0 0 1-1.447-.778 4.326 4.326 0 0 0-1.777-1v-6.565h-1.29v6.466a4 4 0 0 0-2.432 1.1 2.674 2.674 0 0 1-3.853 0 4.127 4.127 0 0 0-2.1-1.061l.005-3.277H18.7v3.275a4.114 4.114 0 0 0-2.1 1.061 3.373 3.373 0 0 1-1.115.7v-9.553h-1.29v9.633a2.89 2.89 0 0 1-1.447-.778 4.313 4.313 0 0 0-1.777-1v-5.921h-1.29v5.821a4 4 0 0 0-2.429 1.1 2.672 2.672 0 0 1-3.851 0 4.09 4.09 0 0 0-2.1-1.066V12.9H37.4z"/><path class="a" d="M2.58 19.987h1.29v-4.51h1.934v-1.29H2.58zm29.664-4.51h2.58v2.58h1.29v-3.87h-3.87z"/></svg>