<svg xmlns="http://www.w3.org/2000/svg" width="22" height="22" viewBox="0 0 22 22"><g data-name="Group 3352"><g data-name="Group 3350"><circle data-name="Ellipse 13" cx="11" cy="11" r="11" fill="#ff6301"/></g><g data-name="Group 6" fill="#fff"><path data-name="Path 22" d="M9.375 15.617l-.003.003-.023.024a.019.019 0 0 1-.007.007.226.226 0 0 1-.036.018s-.004.004-.01.004a.226.226 0 0 1-.03.008l-.012.002s-.004.004-.01.002l-2.702.408a.237.237 0 0 1-.197-.061.229.229 0 0 1-.068-.195l.317-2.71s.003-.004.002-.01v-.012l.008-.028s.003-.004.003-.011.013-.025.018-.038a.019.019 0 0 0 .007-.007.145.145 0 0 1 .023-.024l4.847-5.014a.233.233 0 0 1 .335.324l-4.68 4.842.85.823L12.68 9.14a.233.233 0 1 1 .336.324l-4.672 4.833.855.826 4.671-4.833a.233.233 0 0 1 .335.324l-4.833 5zM7.004 13.65l-.223 1.943 1.93-.296-1.705-1.649z"/><path data-name="Path 23" d="M14.309 6.288l1.51 1.46a.838.838 0 0 1 .02 1.185l-.889.919a.234.234 0 0 1-.33.005L12.244 7.56a.234.234 0 0 1-.005-.33l.89-.92a.835.835 0 0 1 1.18-.02zm-1.576 1.096l2.044 1.976.729-.753a.372.372 0 0 0-.01-.525l-1.51-1.46a.372.372 0 0 0-.525.009z"/></g></g></svg>