<svg xmlns="http://www.w3.org/2000/svg" width="11.737" height="14.633" viewBox="0 0 11.737 14.633"><defs><style>.a{fill:#ff6301}</style></defs><path class="a" d="M5.865 0A5.873 5.873 0 0 0 0 5.865a5.773 5.773 0 0 0 .1 1.1c0 .021.015.086.04.2a5.777 5.777 0 0 0 .393 1.157 16.442 16.442 0 0 0 5.071 6.221.415.415 0 0 0 .522 0A16.473 16.473 0 0 0 11.2 8.32a5.711 5.711 0 0 0 .393-1.157c.025-.11.037-.175.04-.2a6.032 6.032 0 0 0 .1-1.1A5.882 5.882 0 0 0 5.865 0zm4.945 6.822v.018c0 .006-.01.06-.03.133v.006a4.87 4.87 0 0 1-.341 1s0 .009-.006.012a15.345 15.345 0 0 1-4.568 5.694A15.345 15.345 0 0 1 1.3 7.991s0-.009-.006-.012a5.2 5.2 0 0 1-.341-1v-.006c-.018-.071-.025-.117-.028-.132s0-.012 0-.021a5.037 5.037 0 1 1 9.89 0z"/><path class="a" d="M5.865 2.206A3.724 3.724 0 1 0 9.589 5.93a3.73 3.73 0 0 0-3.724-3.724zm0 6.62a2.9 2.9 0 1 1 2.9-2.9 2.9 2.9 0 0 1-2.9 2.9z"/></svg>