<svg xmlns="http://www.w3.org/2000/svg" width="15.639" height="16.181" viewBox="0 0 15.639 16.181"><defs><style>.a{fill:#ff6300}</style></defs><path class="a" d="M15.162.947h-3.125v-.47a.477.477 0 1 0-.954 0v.47H8.296v-.47a.477.477 0 0 0-.954 0v.47H4.675v-.47a.477.477 0 0 0-.954 0v.47H.477A.477.477 0 0 0 0 1.424V12.2a.477.477 0 0 0 .477.477h2.927a4.534 4.534 0 0 0 8.83 0h2.927a.477.477 0 0 0 .477-.477V1.424a.477.477 0 0 0-.477-.477zM3.721 1.9v.431a.477.477 0 0 0 .954 0V1.9h2.668v.431a.477.477 0 0 0 .954 0V1.9h2.787v.431a.477.477 0 1 0 .954 0V1.9h2.648v1.95H.954V1.9zm4.1 13.325a3.581 3.581 0 1 1 3.581-3.581 3.586 3.586 0 0 1-3.582 3.583zm4.533-3.5v-.079a4.535 4.535 0 0 0-9.071 0v.079H.954V4.806h13.731v6.919h-2.332z"/><path class="a" d="M8.297 11.765V9.458a.477.477 0 1 0-.954 0v2.505a.477.477 0 0 0 .14.337l1.1 1.1a.477.477 0 0 0 .675-.675z"/></svg>