<svg xmlns="http://www.w3.org/2000/svg" width="27.197" height="28.139" viewBox="0 0 27.197 28.139"><defs><style>.a{fill:#00a4ff}</style></defs><path class="a" d="M26.368 1.648h-5.435V.829a.83.83 0 1 0-1.659 0v.818h-4.846V.829a.83.83 0 0 0-1.659 0v.818h-4.64V.829a.83.83 0 0 0-1.659 0v.818H.829A.83.83 0 0 0 0 2.476v18.743a.83.83 0 0 0 .829.829H5.92a7.885 7.885 0 0 0 15.356 0h5.091a.83.83 0 0 0 .829-.829V2.477a.829.829 0 0 0-.829-.829zM6.47 3.307v.75a.83.83 0 0 0 1.659 0v-.75h4.64v.75a.83.83 0 0 0 1.659 0v-.75h4.846v.75a.83.83 0 1 0 1.659 0v-.75h4.606V6.7H1.659V3.307zm7.126 23.173a6.228 6.228 0 1 1 6.228-6.228 6.235 6.235 0 0 1-6.228 6.228zm7.884-6.09v-.138a7.887 7.887 0 0 0-15.774 0v.138H1.659V8.357h23.879v12.032h-4.056z"/><path class="a" d="M14.428 20.46v-4.013a.83.83 0 0 0-1.659 0v4.356a.83.83 0 0 0 .243.587l1.906 1.907a.83.83 0 0 0 1.173-1.173z"/></svg>