<svg xmlns="http://www.w3.org/2000/svg" width="11.657" height="18.278" viewBox="0 0 11.657 18.278"><defs><style>.a{fill:#fff}</style></defs><path class="a" d="M11.541 4.141a.4.4 0 0 0-.3-.117h-2.22a4.493 4.493 0 0 0-.827-1.869h3.025a.4.4 0 0 0 .415-.415V.415A.4.4 0 0 0 11.216 0H.416a.4.4 0 0 0-.415.415v1.727a.421.421 0 0 0 .415.415h1.878q2.739 0 3.479 1.467H.415A.4.4 0 0 0 0 4.439v1.325a.4.4 0 0 0 .415.415h5.543A2.537 2.537 0 0 1 4.628 7.8a5.858 5.858 0 0 1-2.759.558H.415A.421.421 0 0 0 0 8.773v1.649a.388.388 0 0 0 .117.286q2.492 2.648 6.465 7.413a.383.383 0 0 0 .325.156h2.531a.377.377 0 0 0 .377-.234.355.355 0 0 0-.052-.441q-3.79-4.648-5.958-6.958a6.584 6.584 0 0 0 3.583-1.428 4.853 4.853 0 0 0 1.675-3.038h2.181a.4.4 0 0 0 .415-.415V4.44a.4.4 0 0 0-.118-.299z"/></svg>