<svg xmlns="http://www.w3.org/2000/svg" width="22.196" height="21.139" viewBox="0 0 22.196 21.139"><path data-name="Shape 586 copy 3" d="M21.899.208a.768.768 0 0 0-.838-.142L.819 9.137l-.01.007a1.5 1.5 0 0 0-.8 1.446 1.437 1.437 0 0 0 .951 1.326l7.731 2.573.28 5.794a.9.9 0 0 0 .555.8.732.732 0 0 0 .273.053.788.788 0 0 0 .619-.3l2.631-3.207 3.762 2.867a1.244 1.244 0 0 0 .764.264 1.4 1.4 0 0 0 1.316-1.18l3.295-18.49a.967.967 0 0 0-.287-.882zm-3.816 3.163l-8.828 9.405-6.977-2.322zm1.92.493l-2.646 14.837-6.576-5.014z" fill="#fff"/></svg>