<svg xmlns="http://www.w3.org/2000/svg" width="62.567" height="35.823" viewBox="0 0 62.567 35.823"><defs><style>.a{fill:#fff}</style></defs><path class="a" d="M59.9 29.366h-2.175a26.232 26.232 0 0 0-2.4-9.486.915.915 0 1 0-1.66.771 24.416 24.416 0 0 1 2.225 8.715H13.967a.915.915 0 1 0 0 1.83H59.9a.84.84 0 0 1 .839.84v1.117a.84.84 0 0 1-.839.84H2.67a.84.84 0 0 1-.839-.84v-1.118a.84.84 0 0 1 .839-.84H9.7a.915.915 0 1 0 0-1.83H6.676A24.662 24.662 0 0 1 29.637 6.417h.01q.374-.024.739-.038l.146-.005.259-.007c.164 0 .328-.006.493-.006.219 0 .437 0 .655.01l.193.006c.168.006.336.014.5.023l.267.015a24.682 24.682 0 0 1 18.732 10.668.915.915 0 1 0 1.509-1.036A26.514 26.514 0 0 0 35.036 4.8a4.456 4.456 0 0 0 .713-2.416c0-.5-.222-1.414-1.708-1.961a9.174 9.174 0 0 0-5.513 0C27.042.97 26.82 1.887 26.82 2.384a4.462 4.462 0 0 0 .708 2.416A26.5 26.5 0 0 0 4.842 29.365H2.67A2.674 2.674 0 0 0 0 32.035v1.117c0 1.473 2.67 2.67 2.67 2.67H59.9s2.67-1.2 2.67-2.67v-1.117a2.673 2.673 0 0 0-2.67-2.669zM31.284 1.831a4.287 4.287 0 0 1 2.634.593 2.635 2.635 0 0 1-1.166 2.15c-.18-.01-.358-.017-.535-.024l-.179-.006a24.046 24.046 0 0 0-.754-.011c-.175 0-.354 0-.534.006l-.262.007-.314.011-.359.017a2.635 2.635 0 0 1-1.165-2.15 4.287 4.287 0 0 1 2.634-.593z"/></svg>