<svg xmlns="http://www.w3.org/2000/svg" width="89.519" height="89.519" viewBox="0 0 89.519 89.519"><g data-name="Group 3274"><g data-name="Group 3157"><g data-name="Group 3155"><circle data-name="Ellipse 139" cx="44.76" cy="44.76" r="44.76" fill="#ff6301"/></g></g><path d="M55.362 53.537a9.928 9.928 0 0 0-6.9 2.779l-10.651-6.601a11.613 11.613 0 0 0 0-9.18l10.655-6.6a9.942 9.942 0 1 0-1.987-2.675l-10.405 6.444a11.623 11.623 0 1 0 0 14.84l10.406 6.447a9.962 9.962 0 1 0 8.883-5.454zm0-33.431a6.642 6.642 0 1 1-6.642 6.642 6.649 6.649 0 0 1 6.642-6.641zM27.134 53.427a8.3 8.3 0 1 1 8.3-8.3 8.312 8.312 0 0 1-8.3 8.3zm28.228 16.715a6.642 6.642 0 1 1 6.642-6.642 6.649 6.649 0 0 1-6.642 6.642z" fill="#fff"/></g></svg>