<svg xmlns="http://www.w3.org/2000/svg" width="21.181" height="22.792" viewBox="0 0 21.181 22.792"><path d="M6.037 15.007H18.6a2.591 2.591 0 0 0 2.586-2.586v-5.34a.059.059 0 0 0 0-.028v-.061a.3.3 0 0 1-.009-.033c0-.009 0-.019-.009-.028s0-.019-.009-.028a.228.228 0 0 1-.014-.033.1.1 0 0 0-.014-.023l-.031-.028c0-.009-.009-.014-.014-.023l-.019-.028a.082.082 0 0 0-.019-.023c0-.009-.014-.014-.019-.023s-.014-.014-.019-.023-.014-.014-.019-.019l-.023-.023c-.009 0-.014-.014-.023-.019l-.028-.019-.027-.019a.1.1 0 0 1-.028-.019l-.028-.014-.028-.014-.028-.014c-.009 0-.019 0-.028-.009a.087.087 0 0 0-.033-.009.2.2 0 0 1-.023 0 .1.1 0 0 0-.037 0h-.019L4.72 4.313v-2.22a.288.288 0 0 0 0-.066.035.035 0 0 0 0-.019v-.042c0-.014 0-.023-.009-.037s0-.014 0-.023l-.014-.042v-.019a.14.14 0 0 0-.019-.037s0-.014-.009-.019a.1.1 0 0 0-.019-.028c0-.009-.009-.014-.014-.023l-.014-.023-.019-.028-.014-.014-.028-.028-.014-.014a.2.2 0 0 0-.033-.028s-.014-.009-.019-.014-.019-.014-.028-.023a.432.432 0 0 0-.037-.023s-.009 0-.014-.009L4.332 1.5.879.05a.633.633 0 1 0-.492 1.166L3.45 2.509v13.856a2.589 2.589 0 0 0 2.25 2.563 2.552 2.552 0 1 0 4.74 1.312 2.5 2.5 0 0 0-.351-1.288h5.691a2.517 2.517 0 0 0-.351 1.288 2.553 2.553 0 1 0 2.553-2.553H6.037a1.322 1.322 0 0 1-1.321-1.321v-1.715a2.615 2.615 0 0 0 1.321.356zm3.148 5.228A1.288 1.288 0 1 1 7.9 18.946a1.29 1.29 0 0 1 1.285 1.289zm10.09 0a1.288 1.288 0 1 1-1.288-1.288 1.29 1.29 0 0 1 1.287 1.288zm-.675-6.493H6.037a1.322 1.322 0 0 1-1.321-1.321V5.587l15.2 2.094v4.736a1.323 1.323 0 0 1-1.316 1.325z"/></svg>