<svg xmlns="http://www.w3.org/2000/svg" width="17.567" height="16.956" viewBox="0 0 17.567 16.956"><defs><style>.a{fill:#00a4ff}</style></defs><path class="a" d="M16.962 15.745H8.485a.605.605 0 1 0 0 1.211h8.477a.605.605 0 1 0 0-1.211zM9.506 5.874a.612.612 0 0 0 0-.863L5.3.173A.6.6 0 0 0 4.84 0a.6.6 0 0 0-.46.173L.18 5.01a.61.61 0 0 0 .86.863l3.209-3.692v14.774h1.209V2.204l3.189 3.67a.606.606 0 0 0 .859 0zm.19-3.45h7.266a.62.62 0 0 0 .606-.622.606.606 0 0 0-.606-.606H9.7a.606.606 0 0 0-.606.606.62.62 0 0 0 .606.622zm7.266 9.683H8.485a.606.606 0 0 0 0 1.212h8.477a.606.606 0 0 0 0-1.212zm0-3.637H8.485a.606.606 0 0 0 0 1.212h8.477a.606.606 0 0 0 0-1.212zm0-3.637l-4.844.013a.6.6 0 0 0-.606.593.616.616 0 0 0 .606.618l4.844-.012a.606.606 0 0 0 0-1.212z"/></svg>