<svg xmlns="http://www.w3.org/2000/svg" width="14.187" height="14.24" viewBox="0 0 14.187 14.24"><defs><style>.a{fill:#fff}</style></defs><path class="a" d="M2.874 9.466A15.108 15.108 0 0 0 7.9 13.4a7.821 7.821 0 0 0 2.812.832c.068 0 .133.006.2.006a2.329 2.329 0 0 0 1.806-.776.064.064 0 0 0 .012-.015 7.6 7.6 0 0 1 .57-.59c.139-.133.28-.271.416-.413a1.425 1.425 0 0 0-.006-2.122l-1.774-1.771a1.435 1.435 0 0 0-1.039-.478 1.484 1.484 0 0 0-1.05.475L8.788 9.6c-.1-.056-.2-.106-.292-.153a3.649 3.649 0 0 1-.325-.177 11.18 11.18 0 0 1-2.67-2.431 6.438 6.438 0 0 1-.9-1.44c.277-.251.537-.513.788-.77l.271-.274A1.513 1.513 0 0 0 6.15 3.3a1.5 1.5 0 0 0-.49-1.062l-.879-.879c-.1-.1-.2-.2-.3-.307-.195-.2-.4-.407-.6-.593A1.471 1.471 0 0 0 2.842 0a1.515 1.515 0 0 0-1.054.457l-1.1 1.1a2.268 2.268 0 0 0-.676 1.456 5.461 5.461 0 0 0 .41 2.361 13.733 13.733 0 0 0 2.452 4.092zM.732 3.075a1.561 1.561 0 0 1 .469-1l1.1-1.1a.8.8 0 0 1 .541-.252.754.754 0 0 1 .531.257c.2.183.384.375.584.578.1.1.2.207.307.313l.879.879a.8.8 0 0 1 .277.552.8.8 0 0 1-.277.552l-.274.277c-.274.277-.531.54-.814.791l-.015.015a.577.577 0 0 0-.148.655l.009.024A6.945 6.945 0 0 0 4.937 7.3a11.8 11.8 0 0 0 2.845 2.591 4.224 4.224 0 0 0 .39.212 3.649 3.649 0 0 1 .325.177l.032.018a.617.617 0 0 0 .286.074.626.626 0 0 0 .44-.2l1.1-1.1a.781.781 0 0 1 .54-.263.741.741 0 0 1 .522.263l1.779 1.776a.712.712 0 0 1-.009 1.112c-.124.133-.254.26-.392.392a8.5 8.5 0 0 0-.617.64 1.62 1.62 0 0 1-1.266.537c-.05 0-.1 0-.153-.006a7.105 7.105 0 0 1-2.544-.761 14.352 14.352 0 0 1-4.78-3.75 13.145 13.145 0 0 1-2.331-3.88 4.759 4.759 0 0 1-.372-2.057z"/></svg>