<svg xmlns="http://www.w3.org/2000/svg" width="18.745" height="15.592" viewBox="0 0 18.745 15.592"><path d="M18.446 1.809a7.422 7.422 0 0 1-1.292.436A4.03 4.03 0 0 0 18.218.551a.211.211 0 0 0-.309-.246 7.458 7.458 0 0 1-1.976.816.5.5 0 0 1-.123.015.524.524 0 0 1-.346-.132A4.041 4.041 0 0 0 12.79-.005a4.321 4.321 0 0 0-1.28.2 3.915 3.915 0 0 0-2.64 2.824 4.311 4.311 0 0 0-.096 1.49.145.145 0 0 1-.036.113.15.15 0 0 1-.111.051h-.015A10.6 10.6 0 0 1 1.329.779a.211.211 0 0 0-.346.027 4.046 4.046 0 0 0 .657 4.912 3.621 3.621 0 0 1-.922-.357.211.211 0 0 0-.314.182 4.046 4.046 0 0 0 2.36 3.728h-.086a3.637 3.637 0 0 1-.679-.062.211.211 0 0 0-.241.272 4.05 4.05 0 0 0 3.2 2.755 7.457 7.457 0 0 1-4.179 1.267H.312a.309.309 0 0 0-.3.233.32.32 0 0 0 .153.354 11.092 11.092 0 0 0 5.574 1.5 11.244 11.244 0 0 0 4.763-1.01 10.518 10.518 0 0 0 3.485-2.611 11.449 11.449 0 0 0 2.134-3.574 11.29 11.29 0 0 0 .725-3.912v-.062a.688.688 0 0 1 .257-.535 7.988 7.988 0 0 0 1.607-1.764.211.211 0 0 0-.261-.311z" fill="#ff6301"/></svg>