<svg data-name="Layer 1" xmlns="http://www.w3.org/2000/svg" viewBox="0 0 100 100"><title>Untitled-1</title><path data-name="Path 50" d="M94 28.66a8.73 8.73 0 0 0-8.72-8.72H72.17v-4.32a4.36 4.36 0 0 0-8.72 0v4.32H37.3v-4.32a4.36 4.36 0 1 0-8.72 0v4.32H15.51a8.72 8.72 0 0 0-8.71 8.72V81a8.71 8.71 0 0 0 8.71 8.72s67-.06 69.73 0a8.49 8.49 0 0 0 6.43-2.6A7.9 7.9 0 0 0 94 81.41V28.66zM15.51 81V28.66h13.08V33a4.36 4.36 0 1 0 8.71 0v-4.34h26.15V33a4.36 4.36 0 0 0 8.72 0v-4.34h13.07c.13 0 .09 52.07 0 52.29z"/></svg>