<svg data-name="Layer 1" xmlns="http://www.w3.org/2000/svg" viewBox="0 0 100 100"><title>Untitled-1</title><g data-name="Group 2631"><path data-name="Path 3590" d="M30.55 67.19h44a6.88 6.88 0 0 0 6.88-6.9v-10H30.55zm46.3-6.91a2.3 2.3 0 0 1-2.29 2.3h-5.49v-7.66h7.78zm-41.7-5.36h29.32v7.68H35.15z"/><path data-name="Rectangle 823" d="M24.67 51.66h4.59v14.21h-4.59z"/><path data-name="Path 3591" d="M27.91 33.72a9.8 9.8 0 0 0-3.33 8.93 9 9 0 0 0 6.29 6.57l1.57-4.31a4.78 4.78 0 0 1-3.36-3.15A5.33 5.33 0 0 1 31 37.1a9.4 9.4 0 0 0 4.12-7.25 8.42 8.42 0 0 0-7.76-8.59v4.59a3.88 3.88 0 0 1 3.16 4c.01 1.07-.21 1.68-2.61 3.87z"/><path data-name="Path 3592" d="M39.77 29.85c0 1.07-.23 1.69-2.62 3.88a9.82 9.82 0 0 0-3.34 8.93 9 9 0 0 0 6.3 6.57l1.56-4.32a4.73 4.73 0 0 1-3.35-3.14 5.31 5.31 0 0 1 1.93-4.66 9.4 9.4 0 0 0 4.13-7.26 8.43 8.43 0 0 0-7.76-8.59v4.59a3.91 3.91 0 0 1 3.15 4z"/><path data-name="Path 3593" d="M50.37 92.75A43.38 43.38 0 1 0 7 49.38a43.38 43.38 0 0 0 43.37 43.37zm0-82.16a38.79 38.79 0 1 1-38.78 38.79 38.79 38.79 0 0 1 38.78-38.79z"/></g></svg>