<svg data-name="Layer 1" xmlns="http://www.w3.org/2000/svg" viewBox="0 0 100 100"><title>Untitled-1</title><g data-name="Group 2"><path data-name="Path 4" d="M50.23 4a37.17 37.17 0 0 0-37.12 37.12 36.26 36.26 0 0 0 .67 7c0 .14.1.54.25 1.25a37 37 0 0 0 2.48 7.31A104.13 104.13 0 0 0 48.61 96a2.62 2.62 0 0 0 3.3 0A104.19 104.19 0 0 0 84 56.64a35.88 35.88 0 0 0 2.48-7.32c.16-.7.24-1.11.26-1.24a38.92 38.92 0 0 0 .66-7A37.23 37.23 0 0 0 50.23 4zm31.28 43.18v.11s-.08.39-.18.83a30.1 30.1 0 0 1-2.15 6.33v.08a97.05 97.05 0 0 1-28.9 36 97.05 97.05 0 0 1-28.9-36v-.08a32.8 32.8 0 0 1-2.15-6.33c-.12-.45-.16-.76-.18-.83s0-.08 0-.14a31.87 31.87 0 1 1 62.55 0z"/><path data-name="Path 5" d="M50.22 18a23.57 23.57 0 1 0 23.57 23.52A23.6 23.6 0 0 0 50.22 18zm0 41.89a18.31 18.31 0 1 1 18.31-18.3 18.3 18.3 0 0 1-18.31 18.26z"/></g></svg>