<svg data-name="Layer 1" xmlns="http://www.w3.org/2000/svg" viewBox="0 0 100 100"><title>Untitled-1</title><g data-name="Group 69"><path data-name="Path 52" d="M92.3 47.43h-6.69a35.73 35.73 0 0 0-33.49-33.5v-6.7a2.24 2.24 0 0 0-4.47 0V14a35.73 35.73 0 0 0-33.49 33.5H7.44a2.23 2.23 0 0 0 0 4.46h6.81A35.71 35.71 0 0 0 47.63 85.4v6.7a2.24 2.24 0 0 0 4.47 0v-6.7a35.72 35.72 0 0 0 33.49-33.49h6.7a2.24 2.24 0 0 0 0-4.47zM49.87 80.92a31.25 31.25 0 1 1 31.24-31.24 31.24 31.24 0 0 1-31.24 31.24z"/><path data-name="Path 53" d="M49.87 31.79a17.87 17.87 0 1 0 17.86 17.87 17.87 17.87 0 0 0-17.86-17.87zm0 31.25a13.4 13.4 0 1 1 13.38-13.42A13.41 13.41 0 0 1 49.87 63z"/></g></svg>