<svg id="Layer_1" data-name="Layer 1" xmlns="http://www.w3.org/2000/svg" viewBox="0 0 100 100"><defs><style>.cls-1{fill:#010101}</style></defs><title>Untitled-1</title><path class="cls-1" d="M87.28 75.37l-6.36-10.72V36.58C80.92 18.62 67.28 4 50.44 4S20 18.62 20 36.58v28.07l-6.3 10.72a6.62 6.62 0 0 0 0 6.64 6.4 6.4 0 0 0 5.53 3.27h16.7c.58 6.49 6.83 11.61 14.51 11.61S64.33 91.77 65 85.28h16.7A6.39 6.39 0 0 0 87.31 82a6.67 6.67 0 0 0-.03-6.63zM50.44 91.08c-4.35 0-8-2.52-8.61-5.8h17.23c-.61 3.28-4.26 5.8-8.62 5.8zm31.83-12a.63.63 0 0 1-.57.35H19.19a.61.61 0 0 1-.56-.35.8.8 0 0 1 0-.82l6.69-11.4a2.85 2.85 0 0 0 .4-1.45V36.58c.05-14.76 11.09-26.77 24.72-26.77s24.68 12 24.68 26.77v28.86a2.85 2.85 0 0 0 .4 1.45l6.69 11.39a.8.8 0 0 1 .06.84z"/></svg>