<svg data-name="Layer 1" xmlns="http://www.w3.org/2000/svg" viewBox="0 0 100 100"><title>Untitled-1</title><g data-name="Group 2698"><g data-name="Group 2697"><g data-name="Group 2663"><g data-name="Group 2662"><g data-name="Group 2661"><g data-name="Group 2660"><g data-name="Group 2659"><g data-name="Group 2658"><g data-name="Group 2657"><g data-name="Group 2656"><path data-name="Path 3594" d="M75.29 74.32a2 2 0 0 1-1.29-.51l-46.27-41.6a6.13 6.13 0 0 0-8.21 9.11 2 2 0 1 1-2.7 3 10.16 10.16 0 1 1 13-15.61 6.91 6.91 0 0 1 .57.51l46.22 41.6a2 2 0 0 1 .15 2.84 2 2 0 0 1-1.5.66z"/></g></g></g></g></g></g></g></g><g data-name="Group 2671"><g data-name="Group 2670"><g data-name="Group 2669"><g data-name="Group 2668"><g data-name="Group 2667"><g data-name="Group 2666"><g data-name="Group 2665"><g data-name="Group 2664"><path data-name="Path 3595" d="M78.28 95.93A9.73 9.73 0 1 1 88 86.2a9.74 9.74 0 0 1-9.72 9.73zm0-15.42a5.7 5.7 0 1 0 5.72 5.7 5.68 5.68 0 0 0-5.69-5.68z"/></g></g></g></g></g></g></g></g><g data-name="Group 2679"><g data-name="Group 2678"><g data-name="Group 2677"><g data-name="Group 2676"><g data-name="Group 2675"><g data-name="Group 2674"><g data-name="Group 2673"><g data-name="Group 2672"><path data-name="Path 3596" d="M34.25 96a21.28 21.28 0 1 1 21.28-21.33A21.32 21.32 0 0 1 34.25 96zm0-38.54A17.26 17.26 0 1 0 51.5 74.67a17.27 17.27 0 0 0-17.25-17.28z"/></g></g></g></g></g></g></g></g><g data-name="Group 2687"><g data-name="Group 2686"><g data-name="Group 2685"><g data-name="Group 2684"><g data-name="Group 2683"><g data-name="Group 2682"><g data-name="Group 2681"><g data-name="Group 2680"><path data-name="Path 3597" d="M51.49 31.19A13.19 13.19 0 1 1 64.68 18a13.21 13.21 0 0 1-13.19 13.19zm0-22.36A9.16 9.16 0 1 0 60.65 18a9.16 9.16 0 0 0-9.16-9.17z"/></g></g></g></g></g></g></g></g><g data-name="Group 2696"><g data-name="Group 2695"><g data-name="Group 2694"><g data-name="Group 2693"><g data-name="Group 2692"><g data-name="Group 2691"><g data-name="Group 2690"><g data-name="Group 2689"><g data-name="Group 2688"><path data-name="Path 3598" d="M73.72 57.69a11.39 11.39 0 0 1-11.16-8.87l-.07-.55c0-.1 0-.21-.05-.31a11.73 11.73 0 0 0-11.12-9.32 11.24 11.24 0 0 0-8.72 4.12 2 2 0 1 1-3.11-2.55 15.24 15.24 0 0 1 11.83-5.6 15.84 15.84 0 0 1 15.06 12.52 4.94 4.94 0 0 1 .12.77v.1a7.39 7.39 0 0 0 7.21 5.64 2 2 0 0 1 0 4z"/></g></g></g></g></g></g></g></g></g></g></g></svg>