<svg data-name="Layer 1" xmlns="http://www.w3.org/2000/svg" viewBox="0 0 100 100"><title>Untitled-1</title><g data-name="Group 2630"><g data-name="Group 2629"><path data-name="Path 3570" d="M81.19 10a14.59 14.59 0 0 0-11.29 5.32 39.21 39.21 0 0 0-39.12 0 14.63 14.63 0 1 0-18 22.33 39.48 39.48 0 1 0 75.19 0A14.63 14.63 0 0 0 81.19 10zm4 25.09l-1.6.61.58 1.61a36 36 0 1 1-67.61 0l.59-1.61-1.6-.61a11.17 11.17 0 1 1 13.33-16.52l.93 1.43 1.45-.91a35.75 35.75 0 0 1 38.19 0l1.45.91.94-1.44a11.17 11.17 0 1 1 13.34 16.53z"/><circle data-name="Ellipse 47" cx="34.27" cy="50.73" r="5.65"/><circle data-name="Ellipse 48" cx="66.41" cy="50.73" r="5.65"/><path data-name="Path 3571" d="M54.53 60.52h-8.38a5.53 5.53 0 0 0 0 11.06h8.38a5.53 5.53 0 1 0 0-11.06z"/><path data-name="Path 3572" d="M52.08 27.8v-14H48.6v14z"/></g></g></svg>