<svg data-name="Layer 1" xmlns="http://www.w3.org/2000/svg" viewBox="0 0 100 100"><title>Untitled-1</title><path d="M58.76 62a2.85 2.85 0 1 0 2.84 2.85 2.85 2.85 0 0 0-2.84-2.92zM41.67 39.15a2.84 2.84 0 1 0 0-5.67 2.85 2.85 0 0 0 0 5.69z"/><path d="M95.59 61l-4-10.42 4-10.43a2.86 2.86 0 0 0-.87-3.24l-8.67-7-1.75-11a2.86 2.86 0 0 0-2.37-2.37l-11-1.75-7-8.68a2.86 2.86 0 0 0-3.23-.86l-10.43 4-10.43-4a2.84 2.84 0 0 0-3.23.87l-7 8.67-11 1.76a2.84 2.84 0 0 0-2.36 2.36l-1.76 11-8.67 7a2.85 2.85 0 0 0-.87 3.23l4 10.43L4.84 61a2.84 2.84 0 0 0 .87 3.23l8.67 7 1.76 11a2.83 2.83 0 0 0 2.36 2.37l11 1.76 7 8.67a2.82 2.82 0 0 0 3.23.86l10.43-4 10.43 4a2.88 2.88 0 0 0 3.23-.87l7-8.67 11-1.76a2.86 2.86 0 0 0 2.37-2.37l1.75-11 8.67-7a2.84 2.84 0 0 0 .98-3.22zM41.67 27.78a8.55 8.55 0 1 1-8.54 8.55 8.55 8.55 0 0 1 8.54-8.55zm17.09 45.56a8.55 8.55 0 1 1 8.54-8.54 8.54 8.54 0 0 1-8.54 8.54zm8-41.05L38.3 72.15a2.85 2.85 0 1 1-4.64-3.3L62.14 29a2.85 2.85 0 1 1 4.63 3.31z"/></svg>