<svg xmlns="http://www.w3.org/2000/svg" width="12.379" height="11.017" viewBox="0 0 12.379 11.017"><defs><style>.a{fill:#10a3ff}</style></defs><path class="a" d="M3.879 0a.514.514 0 0 0-.514.514V.8a.514.514 0 0 0 .514.514A.514.514 0 0 0 4.393.8V.52A.513.513 0 0 0 3.879 0zm4.626 0a.514.514 0 0 0-.514.514V.8a.514.514 0 0 0 .514.514A.514.514 0 0 0 9.019.8V.52A.517.517 0 0 0 8.505 0zm2.263 2.71h.039a.583.583 0 0 0 .583-.583v-.358a.583.583 0 0 0-.583-.583h-.039a.583.583 0 0 0-.583.583v.358a.585.585 0 0 0 .583.583zm.983 1.088h-.095l-.261.411a.192.192 0 0 1-.258.064l-.328-.183-.3.18a.187.187 0 0 1-.094.028.19.19 0 0 1-.175-.1l-.236-.405h-.117a.634.634 0 0 0-.63.7v2.085l.625.855a.179.179 0 0 1 .036.105l.142 3.2a.283.283 0 0 0 .283.275h.952a.282.282 0 0 0 .283-.272l.142-3.2a.2.2 0 0 1 .036-.105l.622-.855V4.498a.63.63 0 0 0-.625-.694zM6.145 2.71h.039a.583.583 0 0 0 .583-.583v-.358a.583.583 0 0 0-.583-.583h-.039a.583.583 0 0 0-.583.583v.358a.583.583 0 0 0 .583.583zm.98 1.088H7.03l-.261.411a.192.192 0 0 1-.258.064l-.328-.183-.3.18a.187.187 0 0 1-.094.028.19.19 0 0 1-.175-.1l-.236-.405h-.117a.634.634 0 0 0-.63.7v2.085l.625.855a.179.179 0 0 1 .036.105l.142 3.2a.283.283 0 0 0 .283.275h.952a.282.282 0 0 0 .283-.272l.142-3.2a.2.2 0 0 1 .036-.105l.622-.855V4.498a.619.619 0 0 0-.161-.489.609.609 0 0 0-.466-.211zM1.508 2.71h.039a.583.583 0 0 0 .583-.583v-.358a.583.583 0 0 0-.583-.583h-.039a.583.583 0 0 0-.583.583v.358a.583.583 0 0 0 .583.583zm.996 1.091h-.1l-.261.411a.192.192 0 0 1-.258.064l-.33-.183-.3.18a.187.187 0 0 1-.094.028.19.19 0 0 1-.175-.1l-.236-.4H.633a.634.634 0 0 0-.63.7v2.085l.625.855a.179.179 0 0 1 .036.105l.142 3.2a.283.283 0 0 0 .283.275h.952a.282.282 0 0 0 .283-.272l.142-3.2a.2.2 0 0 1 .036-.105l.622-.855V4.501a.619.619 0 0 0-.161-.489.6.6 0 0 0-.459-.211z"/></svg>