<svg id="Layer_1" data-name="Layer 1" xmlns="http://www.w3.org/2000/svg" viewBox="0 0 100 100"><defs><style>.cls-1{fill:#07090c}</style></defs><title>Untitled-1</title><g id="Group_2687" data-name="Group 2687"><path id="Path_3571" data-name="Path 3571" class="cls-1" d="M50.25 4a46.32 46.32 0 1 0 46.32 46.31A46.38 46.38 0 0 0 50.25 4zm0 86.28a40 40 0 1 1 40-40 40 40 0 0 1-40 40z"/><path id="Path_3572" data-name="Path 3572" class="cls-1" d="M51.12 53a14.38 14.38 0 1 0-14.35-14.4A14.39 14.39 0 0 0 51.12 53zm0-22.41a8 8 0 1 1-8 8 8 8 0 0 1 8-8z"/><path id="Path_3573" data-name="Path 3573" class="cls-1" d="M78.55 65.13A17.94 17.94 0 0 0 61.8 53a3.13 3.13 0 0 0-2.09.62 14.22 14.22 0 0 1-17.2 0 3.16 3.16 0 0 0-2.09-.62 17.94 17.94 0 0 0-16.79 12.26 3.18 3.18 0 0 0 5.84 2.51 1.17 1.17 0 0 0 .09-.24 11.45 11.45 0 0 1 10.19-8.14 20.54 20.54 0 0 0 22.72 0 11.44 11.44 0 0 1 10.16 8 3.18 3.18 0 0 0 5.92-2.3z"/></g></svg>