<svg xmlns="http://www.w3.org/2000/svg" width="54.015" height="40.089" viewBox="0 0 54.015 40.089"><defs><style>.a{fill:#ea5607}</style></defs><path class="a" d="M50.85 4.22h-2.321V3.165A3.169 3.169 0 0 0 45.364 0H3.165A3.169 3.169 0 0 0 0 3.165V32.7a3.169 3.169 0 0 0 3.165 3.165H4.22v1.055a3.169 3.169 0 0 0 3.165 3.165H50.85a3.169 3.169 0 0 0 3.165-3.165V7.385A3.169 3.169 0 0 0 50.85 4.22zM2.11 3.165A1.056 1.056 0 0 1 3.165 2.11h42.2a1.056 1.056 0 0 1 1.055 1.055V6.33H2.11zm0 5.275h44.309v4.22H2.11zm1.055 25.319A1.056 1.056 0 0 1 2.11 32.7V14.77h44.309V32.7a1.056 1.056 0 0 1-1.055 1.055zm48.74 3.165a1.056 1.056 0 0 1-1.055 1.055H7.385a1.056 1.056 0 0 1-1.055-1.055v-1.055h39.034a3.169 3.169 0 0 0 3.165-3.169V6.33h2.321a1.056 1.056 0 0 1 1.05 1.055z"/><path class="a" d="M11.605 18.99h-4.22a1.055 1.055 0 1 0 0 2.11h4.22a1.055 1.055 0 1 0 0-2.11zm8.44 0h-4.22a1.055 1.055 0 0 0 0 2.11h4.22a1.055 1.055 0 0 0 0-2.11zm-4.22 6.329h-8.44a1.055 1.055 0 1 0 0 2.11h8.44a1.055 1.055 0 1 0 0-2.11zm21.094-6.329a5.278 5.278 0 0 0-3.165 1.057 5.275 5.275 0 1 0 0 8.436 5.274 5.274 0 1 0 3.165-9.493zm-3.958 7.368a3.165 3.165 0 1 1 0-4.186 3.16 3.16 0 0 1 0 4.185zm3.958 1.072a3.166 3.166 0 0 1-1.759-.535 5.261 5.261 0 0 0 0-5.26 3.165 3.165 0 1 1 1.759 5.795z"/></svg>