<svg xmlns="http://www.w3.org/2000/svg" width="49.144" height="56.65" viewBox="0 0 49.144 56.65"><defs><style>.a{fill:#ea5607}</style></defs><path class="a" d="M47.304 9.757L30.009.392a3.648 3.648 0 0 0-4.785 1.436l-10.117 18.8h-12.3a2.772 2.772 0 0 0-2.8 2.8v30.419a2.772 2.772 0 0 0 2.8 2.8h39.301a2.772 2.772 0 0 0 2.8-2.8v-7.109h1.162a1.08 1.08 0 0 0 1.094-1.094V37.51a1.08 1.08 0 0 0-1.094-1.094h-1.159v-8a2.852 2.852 0 0 0-2.187-2.734l6.015-11.14a3.583 3.583 0 0 0-1.435-4.785zm-12.3-4.17L24.199 25.616h-3.076l11.552-21.26zm-7.798-2.734a1.345 1.345 0 0 1 1.777-.547l1.709.957-12.03 22.353h-3.76zM2.119 23.36a.66.66 0 0 1 .615-.547h11.143l-1.5 2.734H2.739a1.893 1.893 0 0 0-.615.068V23.36zm40.536 30.487a.613.613 0 0 1-.615.615H2.739a.613.613 0 0 1-.615-.615V28.418a.613.613 0 0 1 .615-.618h39.233a.613.613 0 0 1 .615.615v8h-4.17a3.282 3.282 0 0 0-3.278 3.285v3.76a3.282 3.282 0 0 0 3.281 3.281h4.238v7.109zM44.839 38.6h.068v5.947h-6.49a1.08 1.08 0 0 1-1.094-1.094V39.7a1.08 1.08 0 0 1 1.094-1.1zm1.914-25.156l-6.559 12.172H26.66L36.913 6.681l9.3 5.058a1.2 1.2 0 0 1 .544 1.709z"/><path class="a" d="M42.587 12.423l-.547-.273a2.992 2.992 0 0 0-3.965 1.162l-.684 1.3a2.879 2.879 0 0 0-.205 2.256 2.753 2.753 0 0 0 1.436 1.709l.547.273a3.112 3.112 0 0 0 1.367.342 3.075 3.075 0 0 0 2.6-1.5l.684-1.3a3.063 3.063 0 0 0-1.233-3.969zm-.756 2.939l-.684 1.3a.772.772 0 0 1-1.025.273l-.547-.342a1 1 0 0 1-.342-.41.516.516 0 0 1 .068-.547l.684-1.3a.907.907 0 0 1 .684-.41.616.616 0 0 1 .342.068l.547.273a1.063 1.063 0 0 1 .273 1.095z"/></svg>