<svg xmlns="http://www.w3.org/2000/svg" xmlns:xlink="http://www.w3.org/1999/xlink" width="21.23" height="17.249" viewBox="0 0 21.23 17.249"><defs><style>.a{fill:url(#a)}.b{fill:url(#b)}.c{fill:url(#c)}</style><linearGradient id="a" x1=".732" y1="-.007" x2=".732" y2="1.596" gradientUnits="objectBoundingBox"><stop offset="0" stop-color="#e93e3a"/><stop offset=".355" stop-color="#ed683c"/><stop offset=".705" stop-color="#f3903f"/><stop offset="1" stop-color="#fdc70c"/></linearGradient><linearGradient id="b" x1="4.072" y1="-12" x2="4.072" y2="13.459" xlink:href="#a"/><linearGradient id="c" x1="4.072" y1="-.833" x2="4.072" y2="3.41" xlink:href="#a"/></defs><path class="a" d="M21.089 15.685L11.85.6A1.572 1.572 0 0 0 10 .115a1.271 1.271 0 0 0-.621.493L.146 15.677a.991.991 0 0 0 .617 1.457 1.694 1.694 0 0 0 .618.115H19.85a1.26 1.26 0 0 0 1.38-1.086.9.9 0 0 0-.141-.478zm-1.239.478l-18.464-.007 9.225-15.077 9.242 15.084zm0 0"/><path class="b" d="M9.925 13.506h1.38v1.38h-1.38zm0 0"/><path class="c" d="M9.925 3.845h1.38v8.281h-1.38zm0 0"/></svg>