<svg xmlns="http://www.w3.org/2000/svg" width="45.134" height="36.089" viewBox="0 0 45.134 36.089"><defs><style>.a{fill:#e49871}</style></defs><path class="a" d="M35.197 19.943a1.9 1.9 0 0 0-.634-1.362 18.078 18.078 0 0 0-23.993 0 1.905 1.905 0 0 0-.075 2.769l3.625 3.625a1.894 1.894 0 0 0 2.574.112 9.143 9.143 0 0 1 11.745 0 1.894 1.894 0 0 0 2.574-.112l3.625-3.625a1.919 1.919 0 0 0 .559-1.407zm-5.529 3.684a11.049 11.049 0 0 0-14.2 0l-3.63-3.621a16.171 16.171 0 0 1 21.451 0zm-4.263 5.613a4.013 4.013 0 1 0 1.175 2.838 3.987 3.987 0 0 0-1.175-2.838zm-1.35 4.327a2.106 2.106 0 1 1 0-2.978 2.106 2.106 0 0 1 0 2.978z"/><path class="a" d="M44.53 8.676a32.138 32.138 0 0 0-43.925 0 1.909 1.909 0 0 0-.046 2.742l3.618 3.618a1.9 1.9 0 0 0 2.642.052 23.2 23.2 0 0 1 31.5 0 1.9 1.9 0 0 0 2.642-.052l3.618-3.618a1.909 1.909 0 0 0-.046-2.742zm-4.916 5.014a25.1 25.1 0 0 0-34.089 0L1.91 10.066a30.228 30.228 0 0 1 41.314 0z"/></svg>